<svg xmlns="http://www.w3.org/2000/svg" width="16" height="16" viewBox="0 0 16 16">
    <g fill="none" fill-rule="evenodd">
        <path d="M0 0H16V16H0z"/>
        <path fill="#262626" fill-opacity=".65" fill-rule="nonzero" d="M10 0c.552 0 1 .448 1 1v1h2.5c.828 0 1.5.672 1.5 1.5S14.328 5 13.5 5h-.544l-.917 10.09c-.047.516-.478.91-.996.91H4.957c-.518 0-.95-.394-.996-.91L3.043 5H2.5C1.672 5 1 4.328 1 3.5S1.672 2 2.5 2H5V1c0-.552.448-1 1-1h4zm1.952 5H4.048l.909 10h6.086l.91-10zM9.5 7c.276 0 .5.224.5.5v5c0 .276-.224.5-.5.5s-.5-.224-.5-.5v-5c0-.276.224-.5.5-.5zm-3 0c.245 0 .45.177.492.41L7 7.5v5c0 .276-.224.5-.5.5-.245 0-.45-.177-.492-.41L6 12.5v-5c0-.276.224-.5.5-.5zm7-4h-11c-.276 0-.5.224-.5.5s.224.5.5.5h11c.276 0 .5-.224.5-.5s-.224-.5-.5-.5zM10 1H6v1h4V1z"/>
    </g>
</svg>
