<svg xmlns="http://www.w3.org/2000/svg" width="323" height="169" viewBox="0 0 323 169">
    <g fill="none">
        <path fill="#F5F5F5" d="M36.873 85.007c11.622-5.85 16-19.2 17.361-31.567.227-2.065.762-4.198.045-6.145-.716-1.946-2.817-3.503-4.781-2.904-1.629.495-2.55 2.174-3.63 3.522-1.422 1.791-3.321 3.144-5.48 3.902-1.406.49-3.084.672-4.273-.227-1.637-1.216-1.474-3.712-1.184-5.754l1.724-11.417c.309-2.038.617-4.126.259-6.159-.359-2.033-1.497-4.034-3.362-4.86-1.864-.826-4.432-.054-5.13 1.888-.291.808-.246 1.697-.427 2.537-.182.84-.708 1.72-1.547 1.842-.84.123-1.583-.576-2.11-1.261-1.814-2.37-2.858-5.237-3.81-8.074-.953-2.836-1.865-5.731-3.453-8.254-1.587-2.523-3.955-4.697-6.859-5.269-2.903-.572-6.278.767-7.435 3.53-1.157 2.764.1 5.941 1.592 8.537C6.58 22.727 9.33 26.243 12.54 29.31c.58.55 1.207 1.144 1.36 1.938.25 1.425-1.238 2.591-2.648 2.845-1.597.286-3.226-.109-4.845-.154-1.62-.045-3.448.413-4.27 1.815-1.138 1.965.296 4.407 1.815 6.09 3.027 3.372 6.612 6.196 10.598 8.35 1.42.767 2.935 1.475 3.992 2.723 1.057 1.248 1.524 3.177.585 4.506-.94 1.33-2.885 1.525-4.419 1.003-1.533-.522-2.817-1.574-4.237-2.36-2.654-1.465-6.305-1.815-8.456.373C.604 57.865.177 60.07.5 62.058c.322 1.987 1.302 3.803 2.368 5.5 3.738 5.931 8.883 11.014 15.07 14.213 6.188 3.2 12.131 4.688 18.945 3.254"/>
        <path fill="#E0E0E0" d="M34.813 76.83c-1.073-7-2.548-13.933-4.418-20.762l-1.438-5.387c-.454-1.765-.944-3.517-1.516-5.2-1.091-3.234-2.363-6.404-3.81-9.494-1.361-2.96-2.758-5.718-4.083-8.291-1.325-2.573-2.618-4.938-3.883-7.052-1.979-3.342-4.22-6.52-6.7-9.508-.88-1.057-1.584-1.851-2.07-2.387l-.544-.58c-.06-.073-.126-.138-.2-.196.051.078.108.152.168.223l.531.626c.454.55 1.152 1.361 2.014 2.432 2.42 3.01 4.614 6.195 6.56 9.53 1.248 2.115 2.518 4.488 3.834 7.061 1.315 2.574 2.721 5.337 4.046 8.291 1.43 3.085 2.69 6.246 3.779 9.467.59 1.674 1.043 3.408 1.497 5.182.454 1.775.953 3.563 1.434 5.378 1.873 6.818 3.364 13.736 4.464 20.72"/>
        <path fill="#E0E0E0" d="M27.337 45.449c.145-.266.257-.548.336-.84.19-.55.453-1.361.726-2.35.585-1.993 1.293-4.775 2.068-7.842.776-3.068 1.52-5.832 2.132-7.81.304-.99.554-1.788.74-2.338.11-.281.19-.573.24-.87-.155.257-.283.53-.38.816-.228.535-.518 1.325-.854 2.31-.68 1.965-1.474 4.724-2.268 7.796-.794 3.072-1.424 5.773-1.95 7.883l-.608 2.378c-.088.282-.15.572-.182.867zM1.783 36.758c.334.125.678.217 1.03.277.662.159 1.628.381 2.808.694 2.368.608 5.611 1.561 9.14 2.773 3.53 1.212 6.679 2.45 8.929 3.408 1.13.454 2.032.88 2.658 1.157.317.164.648.298.99.4-.286-.207-.59-.386-.908-.536-.608-.317-1.493-.762-2.613-1.27-2.228-1.026-5.372-2.306-8.915-3.527-3.017-1.046-6.086-1.937-9.195-2.668-1.198-.281-2.173-.454-2.849-.576-.353-.079-.713-.123-1.075-.132zM34.56 76.303c.088-.087.165-.187.226-.295l.585-.908c.508-.771 1.211-1.906 2.06-3.322 1.706-2.827 3.933-6.807 6.35-11.227 2.419-4.42 4.587-8.422 6.23-11.277.803-1.389 1.46-2.532 1.955-3.38.208-.373.38-.677.526-.908.07-.104.123-.217.159-.336-.086.09-.162.189-.227.295l-.603.89c-.508.77-1.207 1.905-2.06 3.321-1.701 2.827-3.929 6.807-6.351 11.232-2.423 4.424-4.568 8.418-6.21 11.277l-1.951 3.376-.527.908c-.07.11-.125.229-.163.354z"/>
        <path fill="#E0E0E0" d="M1.284 60.002c.1.078.21.142.326.19l.962.49 3.566 1.752c3.008 1.48 7.136 3.572 11.7 5.9 4.563 2.328 8.714 4.375 11.754 5.79 1.52.708 2.753 1.271 3.629 1.643l.993.422c.115.054.235.095.359.123-.098-.082-.208-.148-.327-.195l-.962-.486-3.56-1.752c-3.008-1.48-7.141-3.571-11.705-5.9-4.564-2.327-8.728-4.374-11.768-5.808-1.52-.712-2.753-1.275-3.629-1.643l-.993-.422c-.11-.049-.226-.084-.345-.104zM281.377 123.49c-2.004-1.253-4.268-2.03-6.618-2.27-1.08-.109-2.269-.077-3.13.577-.203.118-.326.337-.323.571.051.164.161.303.309.39 2.69 2.056 6.764 2.315 9.762.745M281.205 123.299c-1.533-1.125-2.963-2.384-4.273-3.762-1.315-1.386-2.238-3.096-2.677-4.956-.176-.558-.1-1.164.209-1.66 3.407 2.663 6.083 6.103 6.741 10.378"/>
        <path fill="#E0E0E0" d="M281.341 123.462c-.316-1.86-.288-3.763.082-5.614.38-1.863 1.445-3.516 2.985-4.633.59 1.362.336 2.963-.077 4.402-.643 2.227-1.643 4.334-2.963 6.24M284.68 129.448c-2.028.245-3.792 1.316-5.303 2.686-1.523 1.386-2.584 3.206-3.04 5.214 1.992-.122 3.68-1.529 4.9-3.1 1.22-1.57 2.073-3.298 3.416-4.769M285.406 130.405c-1.62-4.118-1.053-8.777 1.51-12.384 1.157 4.111.73 8.75-1.51 12.384M289.82 135.66c-3.796-.244-7.37 1.808-9.073 5.21-.148.209-.17.482-.06.712.16.154.383.22.6.177 1.783-.118 3.366-1.189 4.668-2.414s2.44-2.632 3.883-3.69M289.68 135.374c-.95-3.059-1.007-6.325-.169-9.416.332-1.212.908-2.491 2.01-3.059.09-.06.2-.08.304-.054.092.048.162.129.195.227.37.85.526 1.776.454 2.7-.068.918-.21 1.828-.427 2.723-.349 1.67-.54 3.467-1.456 4.91-.217.347-.41.708-.58 1.08-.177.363-.177.495-.336.785M301.36 137.117c-.866-3.295.05-7.288 2.128-9.984.15-.2.354-.413.604-.39.38.036.48.545.453.908-.15 3.385-1.25 6.66-3.175 9.448M302.413 137.834c4.134.974 8.488.089 11.913-2.423-1.994-1.002-4.274-1.281-6.45-.79-2.156.49-4.124 1.457-5.445 3.213M303.302 135.642c2.237-3.63 6.533-6.035 10.811-6.253-.495 1.742-1.924 3.095-3.539 3.911-1.615.817-3.411 1.176-5.19 1.52-.689.132-1.637.282-2.082.822M301.583 125.005c.678-2.065 1.141-4.194 1.384-6.353.163-2.16-.145-4.411-1.261-6.267-2.096 4.052-2.305 8.78-.186 12.82M308.624 121.443c2.45-4.448 7.44-8.001 12.493-8.5-1.95 4.856-7.258 8.622-12.493 8.5M307.086 122.314c3.63.558 6.76 2.886 10.166 4.302.715.346 1.507.502 2.3.454.741-.03 1.39-.508 1.637-1.208.248-.7.045-1.479-.512-1.969-.482-.447-1.05-.79-1.67-1.012-3.71-1.547-7.711-1.584-11.608-.649"/>
        <path fill="#E0E0E0" d="M304.976 124.873c.826.236 1.107.667 1.76 1.226 2.233 1.895 4.872 3.251 7.713 3.961.295.073.68.1.825-.163.145-.263-.031-.517-.2-.722-1.236-1.459-2.844-2.557-4.654-3.176-1.778-.663-3.32-1.461-5.444-1.289M302.586 109.412c3.025 2.791 7.088 4.174 11.187 3.808.187.003.369-.061.512-.182.282-.308-.059-.78-.385-1.035-3.29-2.568-7.259-3.63-11.314-2.59"/>
        <path fill="#E0E0E0" d="M305.416 108.378c4.016-2.956 9.202-3.812 13.955-2.306-1.825 1.695-4.168 2.725-6.65 2.923-2.454.222-4.928.013-7.31-.617M304.296 101.271c-.327-3.281-.113-5.872-.345-9.176 0-.263-.072-.58-.317-.672-.345-.136-.631.286-.744.64-.97 3.098-.452 6.47 1.401 9.135"/>
        <path fill="#E0E0E0" d="M304.06 101.652c2.147-1.384 3.998-3.18 5.444-5.287 1.075-1.47 1.982-3.23 1.737-5.032-1.53.038-2.967.75-3.924 1.946-.937 1.19-1.619 2.56-2 4.026-.454 1.443-.74 2.927-1.248 4.347M309.39 100.15c4.896-1.812 9.428-4.485 13.383-7.892-1.597-.644-3.425-.258-5.026.386-3.627 1.375-6.625 4.033-8.425 7.47M305.562 103.431c2.467.272 4.99.454 7.43.036 2.441-.417 4.687-1.361 6.937-2.305.19-.06.352-.187.453-.358.074-.214.007-.451-.167-.595-.175-.136-.378-.23-.595-.277-2.445-.685-5.085-.363-7.494.454-2.294.785-4.5 1.807-6.583 3.05M291.453 109.526c-1.683-3.404-1.574-7.375-.118-10.892 1.025 1.561 1.148 3.55.962 5.41-.186 1.86-.753 3.77-.79 5.64M284.72 106.127c-4.267-.056-8.36 1.689-11.277 4.805 2.1.332 4.264-.213 6.174-1.143 1.873-1.002 3.64-2.19 5.276-3.544M280.193 104.611c-2.06-.163-4.042-.422-6.02.186-2.022.569-3.696 1.99-4.586 3.894 1.943.154 3.891-.215 5.643-1.067 1.741-.854 3.402-1.863 4.963-3.013M286.894 104.684c-1.851-1.217-3.752-2.451-5.898-2.955-2.145-.503-4.659-.131-6.16 1.493 1.746 1.026 3.865 1.148 5.897 1.144 2.033-.005 4.505-.023 6.41.653"/>
        <path fill="#E0E0E0" d="M286.907 104.779c-3.175-3.109-4.368-8.695-3.093-12.947 2.499 3.827 3.593 8.403 3.093 12.947M295.613 95.966c.599-1.389 1.016-2.845 1.552-4.257.488-1.435 1.239-2.768 2.213-3.93.993-1.164 2.401-1.894 3.924-2.033-.984 4.334-3.747 8.052-7.612 10.243M294.039 97.804c-.99-1.362-2.132-3.208-3.47-4.225-1.339-1.017-3.085-1.63-4.723-1.239 1.721 3.005 4.757 5.022 8.193 5.446M294.352 96.08c-.71-1.623-1.234-3.32-1.56-5.06-.327-1.756-.048-3.57.789-5.147 1.742 3.29 2.3 6.807.862 10.247M295.631 85.873c.985-3.253 3.965-5.654 7.186-6.757.398-.162.829-.226 1.257-.186.439.045.806.352.93.776.118.554-.34 1.048-.772 1.416-2.52 2.154-5.452 3.771-8.619 4.751M295.663 83.21c.127-2.102.259-4.23.939-6.222.68-1.992 2-3.857 3.915-4.729.327 2.124-.608 4.234-1.737 6.059-1.13 1.824-2.491 3.548-3.176 5.586M295.613 84.657c-.812-2.373-.907-5.391-2.318-7.46-.994-1.443-2.586-2.428-3.443-3.962-.517 1.469-.444 3.081.204 4.497.644 1.402 1.534 2.678 2.626 3.767 1.053 1.125 1.956 1.97 2.931 3.176"/>
        <path fill="#E0E0E0" d="M295.631 154.58c-.063 0-.118-15.838-.122-35.375-.005-19.536.04-35.396.104-35.396s.118 15.833.123 35.396c.004 19.564-.046 35.374-.105 35.374z"/>
        <path fill="#E0E0E0" d="M309.468 107.134c-.191.093-.39.167-.595.222l-1.642.554c-1.36.454-3.275 1.153-5.34 1.997-2.064.844-3.96 1.588-5.053 2.537-.44.37-.789.835-1.02 1.361-.155.372-.182.6-.205.595-.023-.005 0-.055 0-.164.024-.154.062-.306.113-.454.21-.551.551-1.044.994-1.434.661-.558 1.401-1.017 2.196-1.361.875-.413 1.85-.84 2.88-1.262 2.069-.848 3.979-1.506 5.376-1.942.699-.218 1.27-.377 1.665-.481.205-.075.416-.131.63-.168z"/>
        <path fill="#E0E0E0" d="M314.004 95.989s-.054.068-.168.181c-.113.114-.304.282-.508.477l-1.896 1.724-6.315 5.623c-2.463 2.192-4.595 4.288-6.07 5.867-.74.79-1.32 1.444-1.72 1.897l-.453.527c-.104.118-.163.177-.172.172.038-.072.084-.14.136-.204.095-.127.236-.313.426-.55.377-.453.944-1.147 1.67-1.95 1.905-2.082 3.92-4.062 6.033-5.932 2.473-2.187 4.727-4.156 6.351-5.572l1.947-1.67.535-.454c.062-.055.13-.1.204-.136z"/>
        <path fill="#E0E0E0" d="M302.459 106.222c-.068-.027.453-1.216.961-2.723.508-1.506.763-2.773.826-2.764-.054.972-.26 1.929-.608 2.837-.22.647-.477 1.282-.767 1.901-.101.268-.24.52-.412.749zM295.645 115.81c-.143-.136-.27-.289-.381-.453l-.971-1.248c-.821-1.057-1.95-2.514-3.216-4.111-1.266-1.598-2.432-3.027-3.271-4.085l-.998-1.23c-.13-.138-.244-.29-.34-.453.148.125.284.263.408.413.254.277.612.68 1.052 1.184.876 1.012 2.06 2.428 3.33 4.025 1.27 1.598 2.377 3.077 3.176 4.157.394.545.707.985.907 1.294.118.158.22.329.304.508z"/>
        <path fill="#E0E0E0" d="M292.605 111.913c-.613-.676-1.049-1.493-1.27-2.378-.238-.777-.336-1.59-.29-2.4h.104c-.045.18-.082.28-.1.276-.018-.005 0-.104 0-.295h.105c.049.791.184 1.575.403 2.337.285.846.635 1.668 1.048 2.46zM288.695 106.984c-.28-.208-.585-.38-.907-.512-.798-.24-1.638-.307-2.464-.2-.837.066-1.667.2-2.481.404-.335.104-.676.186-1.021.245.304-.182.632-.318.975-.404.817-.245 1.659-.397 2.51-.454.856-.115 1.728-.02 2.54.277.348.111.647.339.848.644zM287.765 105.79c0 .037-.517-.208-1.361-.494-1.098-.374-2.238-.608-3.393-.699-1.156-.083-2.317-.024-3.457.177-.876.155-1.407.323-1.42.282.113-.07.235-.121.363-.155.336-.115.678-.21 1.025-.285 2.314-.506 4.725-.323 6.936.526.333.13.657.282.971.454.12.049.234.115.336.195zM295.613 100.745c-.401-1.127-.733-2.277-.993-3.445-.332-1.15-.588-2.32-.767-3.503.4 1.126.73 2.277.989 3.444.334 1.15.591 2.32.771 3.504z"/>
        <path fill="#E0E0E0" d="M295.677 100.745c-.318-.713-.685-1.403-1.098-2.065-.464-.625-1.009-1.185-1.62-1.666 0-.027.268.068.626.318.46.337.86.75 1.18 1.22.493.637.807 1.394.912 2.193zM295.631 146.125c-.027 0-.072-.381-.25-1.053-.264-.94-.62-1.852-1.06-2.723-1.094-2.232-3.086-5.069-5.613-7.91-1.256-1.433-2.472-2.786-3.502-4.084-.927-1.143-1.764-2.357-2.504-3.63-.497-.855-.92-1.75-1.266-2.678-.113-.33-.2-.59-.245-.767-.03-.09-.052-.182-.068-.276 0 0 .137.363.4 1.012.372.908.813 1.786 1.32 2.627.754 1.248 1.598 2.438 2.527 3.563 1.038 1.28 2.268 2.627 3.51 4.061 2.537 2.845 4.537 5.718 5.585 7.992.433.892.769 1.827 1.003 2.79.061.262.106.527.136.795.018.092.027.187.027.281zM308.134 132.012c-.213.134-.432.256-.658.367-.591.334-1.158.708-1.697 1.121-.795.621-1.54 1.302-2.232 2.038-.784.83-1.592 1.788-2.418 2.822-1.646 2.065-3.175 3.894-4.082 5.355-.454.722-.812 1.334-1.035 1.761-.108.227-.227.448-.358.663 0 0 0-.068.059-.186s.113-.295.218-.513c.287-.625.612-1.231.975-1.815.907-1.498 2.427-3.35 4.083-5.414.825-1.03 1.642-1.997 2.44-2.823.698-.736 1.457-1.411 2.269-2.02.553-.408 1.14-.767 1.755-1.075.218-.109.395-.172.513-.227.118-.054.163-.063.168-.054z"/>
        <path fill="#E0E0E0" d="M308.379 136.595c-.458.098-.922.165-1.388.2-1.113.115-2.212.332-3.285.649-1.06.344-2.054.866-2.94 1.543-.68.522-.998.957-1.03.93.049-.117.118-.225.205-.318.215-.27.457-.517.721-.74.879-.73 1.889-1.284 2.976-1.633 1.087-.324 2.207-.523 3.339-.595.465-.055.934-.067 1.402-.036z"/>
        <path fill="#E0E0E0" d="M300.14 139.413c-.072-.04.554-.994 1.04-2.269.485-1.275.557-2.428.639-2.414.043.246.043.498 0 .744-.068.597-.204 1.185-.404 1.752-.21.562-.479 1.1-.803 1.606-.267.377-.444.6-.472.581zM312.18 119.705c-.066.05-.14.09-.217.118l-.654.294c-.285.123-.63.282-1.02.486-.39.204-.849.408-1.325.694l-.753.431c-.263.15-.522.327-.798.504-.558.336-1.116.754-1.71 1.176-2.549 1.899-4.773 4.197-6.588 6.807-.408.612-.803 1.184-1.12 1.751-.164.282-.336.55-.454.813-.118.263-.272.526-.404.771-.267.486-.453.949-.648 1.361-.195.413-.336.75-.454 1.04-.118.29-.2.485-.272.658-.03.078-.066.154-.11.227.01-.083.032-.164.064-.24l.236-.682c.1-.295.232-.649.413-1.052.182-.404.363-.876.622-1.362l.394-.78c.136-.273.304-.54.454-.826.313-.577.708-1.158 1.107-1.775 1.81-2.647 4.054-4.97 6.637-6.87.603-.422 1.17-.835 1.737-1.171.277-.168.54-.345.808-.495l.766-.417c.486-.277.949-.477 1.361-.672.413-.195.749-.336 1.04-.454l.67-.254c.07-.034.143-.061.218-.081z"/>
        <path fill="#E0E0E0" d="M302.286 126.34c.093-.322.283-.606.545-.813.609-.529 1.385-.826 2.19-.84.793-.003 1.578.151 2.31.454.31.098.603.24.87.422-.309-.062-.613-.151-.906-.268-.73-.25-1.497-.377-2.269-.376-.759.016-1.493.273-2.096.735-.23.212-.446.441-.644.685zM300.807 127.864c.293-.646.502-1.326.622-2.024.045-.708-.003-1.419-.14-2.115.026 0 .149.204.258.59.135.506.172 1.033.109 1.552-.057.519-.21 1.022-.454 1.484-.2.35-.372.531-.395.513zM284.694 148.394c.34 6.054 2.164 12.207 4.99 18.434h12.176c2.676-6.163 4.373-12.312 4.672-18.434h-21.838z"/>
        <path fill="#FAFAFA" d="M304.555 158.2c0 .064-4.015.119-8.965.119-4.949 0-8.973-.055-8.973-.118 0-.064 4.015-.114 8.973-.114 4.959 0 8.965.05 8.965.114zM304.282 160.397c0 .064-3.76.114-8.406.114-4.645 0-8.406-.05-8.406-.114 0-.063 3.76-.118 8.406-.118 4.646 0 8.406.055 8.406.118zM289.883 152.383c.152 1.87.152 3.748 0 5.618-.157-1.87-.157-3.749 0-5.618z"/>
        <path fill="#FAFAFA" d="M296.393 152.383c.152 1.936.152 3.881 0 5.818-.15-1.937-.15-3.882 0-5.818zM302.531 152.333c.151 1.976.151 3.96 0 5.936-.157-1.976-.157-3.96 0-5.936z"/>
        <path fill="#FAFAFA" d="M306.147 152.383c0 .063-4.71.113-10.52.113-5.812 0-10.52-.05-10.52-.113 0-.064 4.708-.118 10.52-.118 5.81 0 10.52.054 10.52.118z"/>
        <path fill="#E0E0E0" d="M238.276 12.253h1.007l2.191-3.054V7.184s1.552-.096 1.361 2.527c-.19 2.623 0 1.96 0 1.96s3.298 0 3.57.3c.2.205.29 3.481.327 5.26.045.882-.517 1.68-1.36 1.938-.117.028-.235.043-.355.045-.82 0-5.022-.667-5.022-.667h-1.737l.018-6.294zM235.404 11.695L236.021 18.565 237.741 18.565 237.741 11.831z"/>
        <path fill="#E0E0E0" d="M241.08.082c.081-.006.163-.006.245 0H242.586l.635.09.748.11.83.204c1.433.363 2.797.958 4.038 1.76 1.657 1.062 3.079 2.452 4.178 4.085 1.332 1.993 2.153 4.284 2.39 6.67.043.658.043 1.317 0 1.975 0 .33 0 .667-.067.998l-.15 1.007c-.255 1.385-.714 2.725-1.36 3.976-.689 1.31-1.563 2.512-2.596 3.571-1.1 1.082-2.362 1.988-3.738 2.687-1.42.72-2.955 1.186-4.536 1.375-.402.064-.809.099-1.216.104-.408.03-.817.038-1.225.023-.828-.033-1.652-.136-2.463-.309-1.748-.377-3.41-1.077-4.9-2.065h.15l-4.99 2.006-.3.118.087-.308c.503-1.816.993-3.63 1.465-5.337l.027.131c-1.356-1.794-2.269-3.884-2.663-6.099-.19-1.029-.255-2.077-.195-3.122.01-.503.057-1.005.14-1.502.042-.245.078-.486.114-.73.036-.246.118-.454.177-.704.834-3.276 2.803-6.15 5.557-8.11 1.02-.733 2.135-1.321 3.317-1.747l.743-.267.708-.182.649-.159c.209-.04.408-.063.599-.09.376-.05.707-.114.998-.128l.735-.027h.603c-.05.007-.1.007-.15 0l-.453.037-.726.05c-.29 0-.617.095-.994.15-5.528.957-9.974 5.084-11.34 10.527-.055.232-.128.454-.169.7l-.109.716c-.08.486-.124.978-.131 1.47-.056 1.026.013 2.055.204 3.064.393 2.168 1.293 4.213 2.627 5.967l.045.06v.072c-.454 1.724-.957 3.508-1.456 5.341l-.209-.19 4.99-2.006.082-.032.068.045c1.458.964 3.082 1.647 4.79 2.015.792.17 1.596.27 2.405.304.4.023.802.023 1.202 0 .398-.005.795-.039 1.189-.1 1.554-.189 3.064-.65 4.459-1.36 1.347-.683 2.581-1.568 3.66-2.624 1.013-1.035 1.872-2.21 2.55-3.49.642-1.222 1.1-2.533 1.361-3.889.055-.331.105-.662.155-.984.05-.323.04-.658.068-.98.032-.64.022-1.282-.032-1.92-.385-4.32-2.736-8.223-6.374-10.583-1.22-.807-2.562-1.412-3.974-1.793l-.866-.2-.74-.122-.63-.104c-.195 0-.372-.027-.531-.04l-.703-.074c-.09.002-.178-.008-.263-.031z"/>
        <g fill="#263238">
            <path d="M298.792.74c0 .07-66.845.13-149.283.13C67.071.87.21.81.21.74S67.048.61 149.5.61c82.452 0 149.292.055 149.292.13z" transform="translate(10 166)"/>
        </g>
        <g transform="translate(0 49)">
            <path fill="#FFF" d="M31.435 54.811H288.53000000000003V89.51599999999999H31.435z"/>
            <path fill="#000" d="M0.145 0.018H257.24V34.723H0.145z" opacity=".4" transform="translate(31.29 54.792)"/>
            <path fill="#FFF" d="M299.354 51.885c-2.764-7.536-9.54-12.878-17.522-13.816l-57.717-6.792-21.069-15.016C188.398 5.828 170.853.223 152.861.226H15.87c-1.111.02-2.06.811-2.277 1.9-.218 1.09.352 2.183 1.37 2.629l9.877 4.216c-.37.625-.701 1.272-.993 1.938L18.27 23.814c-1.359 3.146-2.06 6.536-2.058 9.963-3.12 0-5.648 2.523-5.65 5.637v22.483l-5.85 2.609C1.899 65.763.086 68.552.086 71.629v5.832c-.01 4.544 3.201 8.46 7.664 9.347l30.967 6.185V90.2c0-7.917 3.15-15.51 8.756-21.107 5.606-5.598 13.21-8.743 21.137-8.743 7.928 0 15.532 3.145 21.138 8.743 5.606 5.598 8.755 13.19 8.755 21.107v2.794h124.414V90.2c0-16.486 13.384-29.85 29.893-29.85 7.928 0 15.532 3.145 21.138 8.743 5.606 5.598 8.755 13.19 8.755 21.107v2.794h15.277c1.98 0 3.88-.786 5.28-2.184 1.4-1.4 2.185-3.296 2.185-5.274V68.486l-6.09-16.6z"/>
            <path fill="#455A64" d="M23.844 10.918l-5.578 12.905c-1.359 3.146-2.06 6.537-2.059 9.963h7.71L31.443 11.8 24.846 8.98c-.373.625-.708 1.272-1.002 1.938z"/>
            <path fill="#FFF" d="M299.354 51.885c-.466-1.26-1.052-2.473-1.75-3.622h-8.162l7.405 17.162 8.616 4.981v-1.902l-6.109-16.619z"/>
            <path fill="#000" d="M299.354 51.885c-.466-1.26-1.052-2.473-1.75-3.622h-8.162l7.405 17.162 8.616 4.981v-1.902l-6.109-16.619z" opacity=".2"/>
            <path fill="#EBEBEB" d="M11.15 54.312h4.24c2.432.004 4.806-.735 6.803-2.119l7.056-4.89c1.245-.86 1.988-2.275 1.986-3.786 0-1.223-.486-2.395-1.352-3.26-.866-.864-2.04-1.35-3.264-1.35H11.2c-.18 0-.351.071-.478.198-.127.126-.198.298-.198.477V53.62c-.01.36.265.666.626.692z"/>
            <path fill="#FFF" d="M305.889 69.614l-2.458-1.418h1.501c.428-.08.738-.454.738-.89 0-.435-.31-.808-.738-.89h-4.593l-1.547-.905h5.242c.434-.076.75-.452.75-.892s-.316-.816-.75-.892h-6.96l-.386-.906h6.303c.359.068.723-.085.925-.389.202-.303.202-.698 0-1.002-.202-.303-.566-.456-.925-.388h-7.07l-.385-.906h6.58c.359.068.723-.086.925-.39.201-.303.201-.697 0-1-.202-.304-.566-.458-.925-.39h-7.36l-.385-.905h6.734c.428-.081.738-.455.738-.89s-.31-.809-.738-.89h-7.491l-.381-.906h6.833c.359.068.723-.085.925-.389.202-.303.202-.698 0-1.001-.202-.304-.566-.457-.925-.39h-7.604l-.386-.905h7.043c.434-.076.75-.452.75-.892s-.316-.816-.75-.892h-7.81l-.534-1.232h6.83c.358.068.722-.085.924-.389.201-.303.201-.698 0-1.002-.202-.303-.566-.456-.925-.388h-8.162c-.297.007-.572.158-.735.406-.164.247-.196.559-.086.834l2.453 5.683 1.152 2.672 1.152 2.672 1.152 2.671 1.151 2.668.34.787c.078.176.208.323.372.422l8.616 4.98c.416.165.89.002 1.117-.383.226-.385.137-.878-.21-1.16l-.027.077z"/>
            <path fill="#FFF" d="M305.889 69.614l-2.458-1.418h1.501c.428-.08.738-.454.738-.89 0-.435-.31-.808-.738-.89h-4.593l-1.547-.905h5.242c.434-.076.75-.452.75-.892s-.316-.816-.75-.892h-6.96l-.386-.906h6.303c.359.068.723-.085.925-.389.202-.303.202-.698 0-1.002-.202-.303-.566-.456-.925-.388h-7.07l-.385-.906h6.58c.359.068.723-.086.925-.39.201-.303.201-.697 0-1-.202-.304-.566-.458-.925-.39h-7.36l-.385-.905h6.734c.428-.081.738-.455.738-.89s-.31-.809-.738-.89h-7.491l-.381-.906h6.833c.359.068.723-.085.925-.389.202-.303.202-.698 0-1.001-.202-.304-.566-.457-.925-.39h-7.604l-.386-.905h7.043c.434-.076.75-.452.75-.892s-.316-.816-.75-.892h-7.81l-.534-1.232h6.83c.358.068.722-.085.924-.389.201-.303.201-.698 0-1.002-.202-.303-.566-.456-.925-.388h-8.162c-.297.007-.572.158-.735.406-.164.247-.196.559-.086.834l2.453 5.683 1.152 2.672 1.152 2.672 1.152 2.671 1.151 2.668.34.787c.078.176.208.323.372.422l8.616 4.98c.416.165.89.002 1.117-.383.226-.385.137-.878-.21-1.16l-.027.077z" opacity=".2"/>
            <ellipse cx="69.294" cy="91.428" fill="#263238" rx="26.052" ry="26.015" transform="rotate(-.86 69.294 91.428)"/>
            <path fill="#263238" d="M43.238 90.992c-.002.022-.002.045 0 .068-.246 9.364 4.569 18.137 12.605 22.97 8.036 4.831 18.054 4.976 26.226.378 8.173-4.598 13.24-13.23 13.264-22.597.003-.022.003-.045 0-.068l-52.095-.751z"/>
            <path fill="#FAFAFA" d="M50.993 91.173c-.144 10.084 7.925 18.377 18.024 18.521 10.099.145 18.403-7.913 18.55-17.997.145-10.085-7.924-18.378-18.023-18.524-4.85-.07-9.53 1.787-13.01 5.163-3.478 3.375-5.472 7.993-5.541 12.837z"/>
            <path fill="#E0E0E0" d="M69.544 73.173c-4.85-.07-9.53 1.787-13.01 5.163-3.478 3.375-5.472 7.993-5.541 12.837l36.577.525c.07-4.844-1.79-9.517-5.17-12.991s-8.005-5.465-12.856-5.534z"/>
            <path fill="#263238" d="M58.14 91.272c-.066 4.5 2.59 8.596 6.728 10.379 4.138 1.782 8.944.9 12.176-2.237 3.232-3.135 4.255-7.907 2.59-12.089-1.664-4.182-5.688-6.951-10.194-7.016-6.152-.088-11.21 4.82-11.3 10.963z"/>
            <ellipse cx="252.928" cy="91.442" fill="#263238" rx="26.052" ry="26.015" transform="rotate(-5.03 252.928 91.442)"/>
            <path fill="#263238" d="M226.89 90.992v.068c-.135 9.293 4.706 17.952 12.699 22.715 7.992 4.763 17.922 4.907 26.05.376 8.126-4.53 13.216-13.046 13.35-22.34v-.068l-52.1-.751z"/>
            <path fill="#FAFAFA" d="M234.644 91.173c-.144 10.084 7.925 18.377 18.024 18.521 10.1.145 18.404-7.913 18.55-17.997.145-10.085-7.923-18.378-18.022-18.524-10.1-.144-18.405 7.914-18.552 18z"/>
            <path fill="#E0E0E0" d="M253.196 73.173c-4.85-.07-9.53 1.787-13.01 5.163-3.479 3.375-5.473 7.993-5.542 12.837l36.577.525c.07-4.844-1.79-9.517-5.17-12.991s-8.005-5.465-12.855-5.534z"/>
            <path fill="#263238" d="M241.795 91.272c-.065 4.5 2.59 8.596 6.728 10.379 4.139 1.782 8.944.9 12.177-2.237 3.232-3.135 4.254-7.907 2.59-12.089-1.664-4.182-5.688-6.951-10.194-7.016-2.955-.043-5.806 1.088-7.925 3.144-2.12 2.056-3.334 4.869-3.376 7.82z"/>
            <path fill="#455A64" d="M224.115 31.29l-21.069-15.015c-6.066-4.318-12.666-7.834-19.635-10.46h-6.947l42.145 27.97 5.506-2.494z"/>
            <path fill="#FAFAFA" d="M286.28 46.61h10.24c-1.49-1.972-3.266-3.712-5.27-5.162-2.339-.752-5.196 2.178-4.97 5.162z"/>
            <path fill="#263238" d="M77.589 34.587H213.13L174.423 7.925c-2.837-2.078-6.263-3.198-9.781-3.197H80.627s-30.183-.739-36.808 8.354l33.77 21.505z"/>
            <path fill="#455A64" d="M67.803 34.65c-.499 0-.989 0-1.478-.045-6.692-.399-12.903-3.607-17.096-8.83l-5.542-6.865c-.896-1.12-1.208-2.597-.842-3.983.366-1.386 1.369-2.517 2.702-3.05l4.761-2.096c5.656-2.167 11.655-3.31 17.713-3.373h15.767L78.736 34.65H67.803zm21.97 0l5.039-28.242h46.435V34.65H89.774zm65.59 0l-5.44-28.242h16.047c2.463-.001 4.86.793 6.834 2.264l34.809 25.974-52.25.005z"/>
            <path fill="#263238" d="M149.813 86.038c-.007-.044-.007-.088 0-.132V84.005c0-1.327.023-3.22.041-5.548.055-4.7.132-11.162.213-18.303.055-3.573.105-6.978.15-10.076 0-1.548.05-3.02.072-4.396.056-1.273.012-2.548-.131-3.813-.233-1.832-.655-3.635-1.26-5.38-.214-.616-.395-1.091-.522-1.413l-.15-.362c-.02-.04-.035-.083-.045-.127.026.037.05.076.068.118.04.077.095.2.168.353.145.317.34.788.571 1.4.637 1.743 1.084 3.55 1.333 5.388.156 1.272.211 2.555.163 3.836 0 1.38-.031 2.852-.05 4.396-.04 3.102-.086 6.503-.131 10.08-.109 7.137-.209 13.585-.286 18.3-.045 2.327-.086 4.22-.113 5.547-.018.643-.032 1.145-.04 1.507v.394c-.011.046-.028.09-.05.132zM208.633 36.62c.038.019.074.043.104.073.082.059.182.136.304.235l.222.177.232.249c.2.2.383.417.548.648 1.032 1.485 1.825 3.123 2.35 4.854.367 1.078.707 2.264 1.01 3.59.155.653.29 1.332.418 2.039.136.726.193 1.466.168 2.205 0 3.011-.096 6.34-.182 9.795-.181 6.946-.39 13.231-.558 17.782-.086 2.264-.158 4.098-.208 5.389-.032.62-.055 1.114-.073 1.462l-.022.38c.004.045.004.089 0 .132-.004-.043-.004-.087 0-.131v-.38-1.468c.036-1.29.081-3.124.136-5.388.127-4.565.299-10.846.49-17.788.085-3.468.18-6.792.199-9.785.027-.728-.025-1.457-.154-2.174-.123-.697-.254-1.358-.404-2.028-.295-1.3-.626-2.5-.975-3.582-.511-1.728-1.28-3.37-2.28-4.868-.387-.522-.83-.997-1.325-1.418z"/>
            <path fill="#FFF" d="M213.104 35.701c.009-1.689-.901-3.25-2.376-4.075l-6.1-3.424c-1.74-.973-3.703-1.485-5.7-1.485-1.231-.001-2.456.193-3.627.575-2.603.902-4.374 3.318-4.449 6.068-.069 1.824.609 3.597 1.876 4.912 1.268 1.314 3.017 2.057 4.845 2.057h10.883c2.56-.005 4.636-2.072 4.648-4.628z"/>
            <path fill="#263238" d="M213.104 35.701s0 .208-.072.589c-.08.56-.261 1.1-.535 1.594-.438.775-1.086 1.413-1.869 1.838-.489.257-1.02.424-1.569.494-.576.068-1.215.027-1.877.036l-9.31-.032c-.882.02-1.76-.124-2.59-.425-2.762-1.022-4.504-3.757-4.262-6.689.148-1.948 1.155-3.73 2.748-4.863.762-.517 1.62-.879 2.522-1.064.863-.203 1.747-.308 2.634-.313 1.647-.002 3.275.347 4.775 1.024.703.312 1.36.71 1.982 1.055l1.814 1.005 3.129 1.735c.785.418 1.434 1.051 1.873 1.824.272.494.455 1.032.54 1.59.058.385.05.589.067.589.02-.198.02-.396 0-.594-.062-.572-.233-1.126-.503-1.634-.427-.814-1.083-1.484-1.887-1.93l-3.106-1.765-1.814-1.024c-.635-.349-1.27-.752-1.99-1.078-2.37-1.085-5.034-1.353-7.573-.76-.936.19-1.825.563-2.617 1.095-1.666 1.18-2.718 3.039-2.87 5.072-.08 1.019.066 2.042.426 2.998.712 1.835 2.176 3.278 4.022 3.967.86.312 1.77.458 2.685.43l9.31-.027c.633.013 1.268-.007 1.9-.06.568-.076 1.116-.257 1.618-.533.802-.45 1.46-1.117 1.896-1.925.268-.508.436-1.063.494-1.635.02-.194.023-.39.01-.584z"/>
            <path fill="#FFF" d="M196.253 29.303c.023 0 .164-.213.526-.508.526-.404 1.154-.654 1.814-.724.979-.077 1.963.029 2.902.312 1.17.297 2.315.686 3.424 1.164 2.018.876 3.896 2.043 5.573 3.464 1.297 1.083 1.977 1.884 2.018 1.848-.129-.21-.28-.404-.453-.58-.449-.5-.925-.976-1.429-1.422-1.659-1.482-3.547-2.687-5.591-3.568-1.122-.486-2.284-.873-3.474-1.16-.971-.278-1.988-.365-2.992-.257-.683.095-1.323.388-1.842.842-.137.124-.259.264-.362.417-.047.05-.086.108-.114.172z"/>
            <path fill="#263238" d="M107.228 92.232v-.321c0-.213.027-.534.05-.942.022-.407.068-.906.072-1.526.005-.62-.022-1.304-.036-2.088-.014-.783-.145-1.652-.222-2.603-.046-.476-.154-.965-.232-1.477-.077-.511-.154-1.046-.285-1.589-.55-2.465-1.332-4.873-2.336-7.19-1.244-2.8-2.818-5.44-4.688-7.867-2.138-2.79-4.661-5.26-7.496-7.34-3.14-2.295-6.638-4.056-10.353-5.212-3.989-1.24-8.143-1.868-12.32-1.861-4.178.04-8.326.695-12.313 1.942-3.714 1.166-7.23 2.887-10.43 5.104-2.893 2.001-5.524 4.356-7.83 7.01-2.015 2.31-3.79 4.816-5.302 7.48-1.213 2.213-2.257 4.514-3.124 6.883-.2.521-.345 1.042-.513 1.531-.168.49-.326.965-.453 1.426-.232.906-.454 1.766-.644 2.536l-.408 2.047c-.11.593-.164 1.105-.227 1.513l-.136.932c-.032.209-.055.317-.055.317s0-.108.032-.321l.114-.933c.054-.412.104-.906.204-1.521.1-.616.24-1.282.39-2.056.15-.775.394-1.612.62-2.54.114-.454.287-.938.454-1.436.168-.498.309-1.015.504-1.54.863-2.383 1.909-4.697 3.129-6.92 1.508-2.68 3.282-5.203 5.296-7.53 2.315-2.67 4.955-5.042 7.859-7.06 3.21-2.232 6.74-3.967 10.47-5.143 4.009-1.254 8.18-1.913 12.38-1.957 4.201-.006 8.379.626 12.39 1.875 3.734 1.169 7.25 2.945 10.406 5.257 2.85 2.095 5.386 4.585 7.532 7.395 1.871 2.445 3.444 5.104 4.685 7.92.998 2.336 1.771 4.763 2.308 7.245.131.544.186 1.087.281 1.594.095.508.181 1.006.222 1.486.068.955.177 1.811.2 2.613.022.801 0 1.485 0 2.092 0 .606-.073 1.114-.095 1.53-.023.417-.055.72-.073.938-.018.217-.027.307-.027.307z"/>
            <path fill="#263238" d="M80.573 53.602s-.055-.06-.136-.177c-.082-.118-.2-.326-.336-.539-.286-.453-.694-1.15-1.174-2.01-.573-1.002-1.094-2.033-1.56-3.089-.136-.312-.243-.637-.318-.969-.03-.184-.02-.373.032-.552.04-.172.095-.34.145-.512.227-.675.485-1.359.767-2.056 1.12-2.785 2.24-5.257 3.051-7.046.413-.906.749-1.612.989-2.106.109-.226.204-.416.281-.57.028-.07.066-.133.113-.19-.015.073-.04.145-.072.212l-.24.585-.907 2.137c-.776 1.811-1.869 4.288-2.989 7.064-.276.693-.54 1.359-.762 2.042-.13.303-.19.631-.172.96.068.311.166.615.295.906.499 1.191 1.047 2.223 1.505 3.093l1.107 2.042.3.557c.033.07.06.143.08.218zM42.876 62.314c0 .068-7.292.086-16.284.045-8.993-.04-16.29-.127-16.29-.19s7.293-.086 16.29-.045c8.996.04 16.284.127 16.284.19zM212.927 85.63c0 .064-23.657.118-52.834.118-29.176 0-52.833-.059-52.833-.122 0-.064 23.648-.118 52.833-.118 29.186 0 52.834.077 52.834.122zM305.436 85.91c0 .069-3.628.119-8.09.119-4.463 0-8.095-.05-8.095-.118 0-.068 3.628-.118 8.095-.118 4.466 0 8.09.055 8.09.118zM285.428 43.268h-.195l-.503-.036-1.95-.159c-1.696-.136-4.14-.362-7.165-.66-6.045-.603-14.384-1.545-23.58-2.827-9.197-1.281-17.459-2.658-23.436-3.74-2.988-.539-5.405-.992-7.07-1.322l-1.917-.385-.5-.104-.167-.046c.057-.005.115-.005.172 0l.504.082 1.927.34 7.079 1.25c5.98 1.036 14.266 2.386 23.444 3.667 9.178 1.282 17.504 2.264 23.544 2.894l7.151.738 1.946.204.508.054.208.05zM167.671 46.112s.131 0 .367-.055c.345-.06.674-.191.966-.385.463-.302.81-.752.984-1.277.106-.325.149-.668.127-1.01-.01-.382-.108-.757-.286-1.095-.416-.784-1.229-1.277-2.117-1.286H157.5c-1.223.003-2.25.92-2.39 2.133-.072.557.03 1.124.295 1.62.266.47.68.838 1.179 1.047.49.166 1.011.229 1.528.185h4.23l3.919.041h1.06c.125-.002.25.006.373.023-.123.02-.248.028-.372.022l-1.061.023-3.918.09H157.323c-.282-.018-.559-.081-.821-.185-.545-.226-1-.625-1.292-1.137-.292-.538-.406-1.154-.327-1.761.148-1.335 1.277-2.345 2.621-2.346h10.212c.957.02 1.827.56 2.268 1.409.185.362.284.761.29 1.168.015.36-.037.719-.154 1.06-.194.545-.568 1.008-1.061 1.313-.308.19-.653.31-1.012.353-.122.033-.249.05-.376.05z"/>
            <path fill="#FFF" d="M166.8 40.216c-1.34.122-2.686.163-4.031.122-1.345.041-2.691 0-4.031-.122 1.34-.117 2.686-.156 4.031-.118 1.345-.038 2.69.001 4.031.118z"/>
            <path fill="#263238" d="M100.67 46.524s.132 0 .368-.055c.346-.058.675-.19.966-.384.464-.302.81-.752.984-1.277.106-.326.15-.669.127-1.01-.01-.383-.108-.757-.286-1.096-.42-.78-1.23-1.273-2.118-1.286H90.5c-1.224.003-2.25.92-2.39 2.133-.073.557.03 1.124.294 1.62.267.47.681.838 1.18 1.047.49.168 1.01.231 1.527.186h4.226l3.919.036 1.06.022c.125-.002.25.006.373.023-.123.02-.248.03-.372.027l-1.061.023-3.918.036H90.318c-.282-.017-.56-.08-.82-.186-.547-.224-1.002-.624-1.293-1.136-.291-.537-.405-1.152-.327-1.757.144-1.337 1.274-2.351 2.621-2.35h10.217c.957.018 1.828.558 2.267 1.408.186.362.285.762.29 1.168.016.36-.037.72-.154 1.06-.193.546-.568 1.009-1.06 1.313-.306.19-.65.31-1.007.353-.123.044-.251.071-.381.082z"/>
            <path fill="#FFF" d="M99.809 40.628c-1.34.122-2.686.163-4.031.122-1.345.041-2.692 0-4.032-.122 1.34-.117 2.687-.156 4.032-.118 1.345-.038 2.69.001 4.031.118z"/>
            <path fill="#263238" d="M289.655 93.075v-.322-.942-1.526c0-.62-.091-1.3-.145-2.078-.055-.78-.218-1.644-.34-2.59-.064-.453-.19-.956-.286-1.463-.095-.507-.2-1.037-.345-1.571-.63-2.444-1.474-4.827-2.521-7.123-1.3-2.769-2.906-5.383-4.789-7.794-2.156-2.77-4.682-5.23-7.51-7.313-3.124-2.305-6.604-4.087-10.302-5.275-7.984-2.59-16.585-2.59-24.57 0-3.698 1.188-7.179 2.968-10.307 5.27-2.825 2.085-5.352 4.545-7.51 7.314-1.882 2.412-3.489 5.028-4.788 7.798-1.047 2.294-1.89 4.676-2.521 7.118-.145.539-.231 1.069-.345 1.576-.113.507-.222.992-.285 1.463-.123.946-.272 1.81-.34 2.585-.068.775-.1 1.476-.146 2.079-.045.602 0 1.118 0 1.53v0c0-.407-.027-.928 0-1.53.028-.603.078-1.304.123-2.088.045-.783.204-1.644.317-2.595.06-.452.186-.96.281-1.471.096-.512.19-1.042.336-1.58.62-2.455 1.455-4.85 2.494-7.16 1.265-2.78 2.836-5.41 4.684-7.843 2.162-2.79 4.698-5.272 7.537-7.372 3.143-2.32 6.643-4.116 10.362-5.316 8.03-2.612 16.684-2.612 24.714 0 3.72 1.196 7.218 2.992 10.357 5.316 2.84 2.098 5.377 4.577 7.537 7.368 1.888 2.427 3.496 5.06 4.793 7.847 1.043 2.31 1.879 4.707 2.499 7.164.145.539.227 1.073.336 1.58.108.507.217.997.276 1.467.118.951.259 1.812.322 2.6.064.788.086 1.48.123 2.087.036.607 0 1.114 0 1.526v.942c0 .218-.041.322-.041.322zM91.882 4.728c-.068.007-.136.007-.204 0H80.346l-27.857-.091-15.34-.077c-4.712-.036-8.961 0-12.526-.208-2.815-.13-5.618-.453-8.389-.965-.98-.185-1.737-.358-2.244-.489l-.576-.15c-.067-.014-.132-.034-.195-.058l.2.036.584.127c.508.118 1.27.272 2.268.453 2.771.472 5.57.767 8.38.883 3.56.185 7.804.136 12.515.158l15.341.059 27.857.159 8.444.077 2.294.031h.594c.118.045.186.055.186.055z"/>
            <path fill="#FAFAFA" d="M124.03 16.718c.03.055-4.908 2.717-11.025 5.887-6.117 3.17-11.105 5.747-11.133 5.688-.027-.059 4.902-2.717 11.024-5.887 6.122-3.17 11.106-5.746 11.133-5.688zM134.364 14.65c-.075.056-.156.105-.24.144l-.704.38-2.598 1.359c-2.195 1.15-5.22 2.744-8.539 4.528-3.32 1.784-6.303 3.478-8.457 4.696l-2.553 1.44-.699.385c-.078.05-.164.09-.254.118.07-.06.147-.113.227-.159l.676-.421c.594-.367 1.451-.878 2.521-1.508 2.131-1.254 5.106-2.952 8.43-4.76 3.324-1.806 6.349-3.377 8.575-4.487 1.107-.552 2.005-.996 2.63-1.29l.726-.34c.082-.04.169-.07.259-.086zM179.19 18.403c-.06.045-.126.082-.196.109l-.567.262-2.104.938c-1.777.792-4.222 1.906-6.897 3.197-2.676 1.29-5.065 2.508-6.802 3.405l-2.045 1.064-.563.28c-.062.038-.13.067-.2.087 0 0 .055-.05.178-.127l.54-.321c.453-.277 1.156-.662 2.008-1.128 1.71-.933 4.081-2.183 6.77-3.473 2.69-1.29 5.138-2.382 6.934-3.138.907-.376 1.628-.675 2.136-.87l.585-.222c.07-.03.146-.052.222-.063zM172.736 17.774c-.415.249-.847.47-1.292.66-.803.395-1.91.952-3.102 1.617-1.193.666-2.267 1.314-3.006 1.789-.399.278-.816.529-1.247.752.353-.34.738-.643 1.151-.906.74-.516 1.787-1.19 2.984-1.857 1.024-.573 2.076-1.094 3.152-1.562.435-.21.891-.375 1.36-.493zM71.53 17.515c.028.064-3.242 1.359-7.296 2.93-4.054 1.572-7.36 2.767-7.382 2.717-.023-.05 3.242-1.358 7.296-2.925 4.054-1.567 7.36-2.78 7.383-2.722zM67.327 16.162c.023.058-2.798 1.145-6.294 2.418-3.497 1.272-6.349 2.264-6.38 2.2-.032-.063 2.797-1.145 6.298-2.422 3.5-1.277 6.353-2.26 6.376-2.196zM258.479 51.772c-.125.004-.25-.004-.372-.023l-1.057-.104-.762-.081c-.28-.023-.585-.036-.907-.055-.657-.031-1.4-.104-2.222-.09h-1.297c-.453 0-.907.032-1.4.05-.967 0-1.996.136-3.084.235-4.703.524-9.294 1.783-13.605 3.731-.984.453-1.927.906-2.77 1.359-.427.235-.844.453-1.234.675l-1.106.665c-.712.412-1.315.852-1.864 1.21-.272.185-.526.353-.753.516-.226.163-.43.317-.616.452l-.853.63c-.096.08-.199.15-.308.208.084-.09.177-.172.276-.244l.83-.666.603-.475c.227-.173.454-.34.744-.53.544-.376 1.143-.824 1.855-1.246l1.102-.683c.385-.236.807-.453 1.229-.689.843-.484 1.813-.905 2.775-1.394 4.325-1.982 8.944-3.25 13.676-3.754 1.093-.095 2.127-.204 3.102-.213.485 0 .953-.045 1.406-.036l1.297.022c.83 0 1.573.082 2.231.127.326.027.63.04.907.073l.762.104 1.056.15c.122.014.242.04.359.076zM70.547 50.558c-.098.018-.196.025-.295.023h-.84c-.362 0-.806 0-1.323.036-.517.037-1.107.041-1.75.114l-1.021.09c-.35.036-.716.095-1.097.14-.758.091-1.56.25-2.408.394-1.828.37-3.634.84-5.41 1.409-1.772.584-3.512 1.258-5.215 2.02-1.565.71-2.948 1.408-4.081 2.046-.576.304-1.075.612-1.524.87-.449.258-.83.484-1.138.679l-.717.453c-.081.054-.168.101-.258.14.069-.07.147-.13.231-.181.181-.118.408-.276.694-.453.286-.176.676-.453 1.12-.715.444-.263.939-.589 1.51-.906 1.13-.657 2.512-1.359 4.081-2.101 1.703-.79 3.447-1.486 5.224-2.088 1.785-.571 3.602-1.037 5.442-1.394.852-.14 1.66-.295 2.426-.372.38-.045.748-.1 1.102-.131l1.025-.077c.648-.063 1.242-.063 1.76-.077.516-.014.965 0 1.328 0l.843.032c.099.005.196.021.29.05z"/>
        </g>
        <g>
            <path fill="#FFBE9D" d="M37.53 48.973c.018-.073.049-.143.09-.205l1.57.31s2.496-.337 2.604-.246c.109.09 2.781 2.727 2.872 2.727.09 0 3.73.386 3.73.386l.086 4.546-3.278-.05-2.8-4.06-4.421-2.458c-.344-.18-.529-.568-.453-.95z" transform="translate(194 22)"/>
            <path fill="#263238" d="M69.006 76.086l5.548 32.437c.3 1.74 1.034 3.374 2.135 4.75l13.664 17.063 5.567-4.577-10.292-20.618-1.415-29-15.207-.055z" transform="translate(194 22)"/>
            <path fill="#263238" d="M72.633 76.064l-1.018 31.818s1.325 6.44 1.357 9.604c.031 3.164-1.46 16.941-1.46 16.941l-5.879.068-4.178-24.545-1.705-33.81 12.883-.076z" transform="translate(194 22)"/>
            <path fill="#455A64" d="M74.007 105.31c-.063 0-1.053-6.246-2.206-13.974-1.153-7.727-2.035-13.995-1.967-14.004.068-.01 1.049 6.245 2.202 13.973 1.153 7.727 2.035 13.995 1.971 14.004z" transform="translate(194 22)"/>
            <path fill="#FFF" d="M95.92 125.76l.171.235 3.338 4.51 4.169 2.968-5.802 10.832-6.213-.087s.452-1.49 3.473-2.223l.285-5.99L90.059 130" transform="translate(194 22)"/>
            <path fill="#FFF" d="M12.263 0.745L6.457 11.577 0.244 11.491 0.959 10.564 6.014 10.355 11.372 0.114z" opacity=".6" transform="translate(194 22) translate(91.34 132.727)"/>
            <path fill="#263238" d="M95.133 139.25c.045.064.407-.136.904-.114.498.023.832.223.882.164.05-.06-.29-.427-.873-.455-.583-.027-.967.355-.913.405zM95.255 137.764c.063.045.344-.319.841-.41.497-.09.904.146.931.078.028-.068-.05-.132-.221-.227-.48-.256-1.071-.147-1.429.263-.127.155-.154.26-.122.296zM95.241 135.855c.068.036.285-.323.72-.455.433-.132.822 0 .854-.064.032-.063-.063-.118-.23-.186-.471-.172-.998.005-1.271.427-.095.146-.104.264-.073.278zM93.6 134.35c.072.027.253-.323.642-.568.389-.246.773-.277.782-.36.01-.081-.452-.181-.931.128-.48.31-.57.79-.493.8zM92.804 133.06c.032 0 .24-.228.552-.646l.538-.746c.121-.151.22-.32.294-.5.04-.125.03-.26-.032-.377-.073-.136-.218-.216-.37-.205-.22.042-.424.144-.588.296-.394.337-.65.808-.72 1.323-.068.29-.023.596.127.854.005-.274.026-.547.064-.818.063-.284.183-.551.352-.786.1-.136.218-.258.348-.364.128-.115.284-.193.453-.227.046-.01.094.012.117.054.023.057.023.12 0 .177-.064.154-.146.298-.244.432l-.488.778c-.172.229-.308.483-.403.754zM92.583 133.24c.027 0 0-.33-.321-.708-.466-.519-1.215-.667-1.84-.364-.062.058-.098.138-.1.223.005.072.03.141.072.2.063.078.138.145.222.2.143.099.294.185.452.259.258.12.532.202.814.24.484.06.777-.03.768-.063-.009-.032-.293-.027-.732-.127-.256-.06-.504-.154-.737-.277-.137-.071-.268-.155-.389-.25-.058-.04-.112-.088-.158-.141-.027-.055 0-.041 0-.055.055-.034.116-.058.18-.068.077-.015.154-.026.231-.032.152-.009.305.005.452.041.248.058.477.179.665.35.29.3.375.591.42.573z" transform="translate(194 22)"/>
            <path fill="#FFF" d="M98.646 133.21c-.005.3.17.573.444.692.274.12.592.061.806-.147.215-.21.282-.528.172-.806-.11-.28-.377-.463-.676-.467-.405-.005-.738.32-.746.727z" opacity=".6" transform="translate(194 22)"/>
            <path fill="#FFF" d="M71.869 132.6l-.032 11.818-14.646.187c.068-1.41 8.22-4.287 8.22-4.287l-.171-7.945 6.629.227z" transform="translate(194 22)"/>
            <path fill="#FFF" d="M69.327 139.582c.292.087.472.38.42.682-.073.299-.368.487-.668.427-.313-.089-.509-.4-.453-.723.11-.305.44-.468.747-.368M71.837 144.423l-.054-1.196-14.018.628s-.646.29-.57.754l14.642-.186z" opacity=".6" transform="translate(194 22)"/>
            <path fill="#263238" d="M65.194 140.455c0 .072.362.1.715.327s.547.527.61.5c.064-.027-.045-.455-.479-.714-.434-.259-.864-.177-.846-.113zM63.304 141.15c0 .068.299.186.543.49.244.305.321.62.393.62.073 0 .113-.415-.203-.783-.317-.368-.733-.395-.733-.327zM62.463 142.94c.064 0 .159-.35-.027-.74-.185-.39-.524-.54-.556-.482-.032.06.18.268.33.591.15.323.19.623.253.632zM65.285 138.482c.032.063.357-.037.764 0 .407.036.719.145.755.082.036-.064-.267-.314-.746-.332-.48-.018-.81.195-.773.25zM65.005 136.718c.24.064.492.064.732 0 .423-.085.825-.252 1.185-.49.08-.048.154-.108.217-.178.097-.105.11-.263.031-.382-.074-.1-.191-.16-.316-.159-.094-.002-.187.012-.276.041-.155.04-.307.095-.452.164-.247.114-.475.268-.674.454-.334.318-.452.591-.425.605.027.013.2-.205.538-.455.2-.155.419-.283.651-.382.137-.056.277-.102.42-.136.155-.04.286-.045.326 0 .041.045 0 .04 0 .086-.048.05-.103.093-.162.128-.123.084-.252.16-.385.227-.225.117-.461.212-.705.282-.24.045-.476.11-.705.195z" transform="translate(194 22)"/>
            <path fill="#263238" d="M65.113 136.818c.135-.212.2-.462.185-.713.01-.273-.028-.546-.113-.805-.046-.158-.11-.31-.19-.455-.081-.198-.262-.339-.474-.368-.133.005-.25.087-.303.21-.035.087-.06.179-.073.272-.022.164-.022.331 0 .496.044.276.156.537.326.759.29.377.588.454.592.454.005 0-.226-.173-.452-.536-.13-.21-.211-.446-.24-.691-.022-.142-.022-.286 0-.427 0-.155.077-.282.136-.269.059.014.2.114.258.241.075.125.137.258.185.396.086.237.138.485.154.736.009.423-.045.7.009.7z" transform="translate(194 22)"/>
            <path fill="#FAFAFA" d="M40.017 55.968c0 .06-.27.023-.51-.159s-.344-.418-.29-.454c.054-.037.222.104.43.263.208.16.393.291.37.35z" transform="translate(194 22)"/>
            <path fill="#FAFAFA" d="M39.601 56.714c-.067 0-.108-.237-.095-.523.014-.286.082-.514.145-.51.063.005.109.237.09.524-.018.286-.076.513-.14.509z" transform="translate(194 22)"/>
            <path fill="#EB996E" d="M48.016 45.973c-.063 0-.303-2.568-.303-2.568s.945.2 1.117.868c.172.668.308 1.245.308 1.245l2.36.668 2.478-.786-1.026 1.623s-1.357.2-1.447.195c-.09-.004-3.487-1.245-3.487-1.245z" transform="translate(194 22)"/>
            <path fill="#FFBE9D" d="M56.029 49.064l-5.462-.519s-4.138-2.518-4.604-2.827c-.098-.067-.166-.17-.19-.286-.02-.18.056-.357.198-.467.142-.11.331-.139.499-.074l4.847 1.704c.294.096.614.058.877-.104l2.035-1.227s-.836-.8-1.356-1.414c-.31-.317-.37-.804-.145-1.186.656.09 3.988 2.545 3.988 2.545l1.393 1.073-2.08 2.782z" transform="translate(194 22)"/>
            <path fill="#EB996E" d="M49.115 45.564l.733-2.15s.65.077.583.909c-.068.832-.05 1.518-.05 1.518l1.099.454-2.378-.659" transform="translate(194 22)"/>
            <path fill="#FFF" d="M46.253 51.49l11.372-.935 7.167-10.696 3.387 8.21-3.87 5.863c-1.443 2.18-3.913 3.447-6.517 3.34l-11.521-.454-.018-5.327z" transform="translate(194 22)"/>
            <path fill="#263238" d="M75.513 9.74c.122 1.646 2.351 2.56 2.388 4.215 0 .709-.398 1.363-.453 2.068-.077.95.484 1.818.715 2.727.452 1.905-.56 3.973-2.166 5.086-1.605 1.114-3.667 1.4-5.612 1.21M62.282 9.855c.1.886-.452 1.7-1.012 2.386-.561.686-1.185 1.404-1.28 2.273-.163 1.568 1.41 2.954 1.157 4.509-.135.832-.782 1.522-.872 2.359-.01.828.33 1.621.936 2.182.556.59 1.17.454 1.668 1.122.578.726 1.3 1.322 2.121 1.75 1.736.869 3.721-.568 4.522-.84" transform="translate(194 22)"/>
            <path fill="#263238" d="M75.87 10.677c0-.804-.773-1.395-1.524-1.659-.75-.263-1.587-.345-2.26-.768-.56-.436-1.074-.927-1.538-1.464-1.298-1.221-3.15-1.645-4.847-1.107-1.696.538-2.971 1.953-3.337 3.703-.24 1.154 0 2.5.936 3.223 1.071.84 2.609.586 3.93.259 1.32-.328 2.82-.66 3.965.086.692.455 1.108 1.205 1.546 1.905.439.7.981 1.409 1.768 1.645s1.809-.268 1.809-1.095" transform="translate(194 22)"/>
            <path fill="#FFBE9D" d="M72.823 10.6L65.66 9.06c-2.26-.155-3.69 2.726-3.748 5-.064 2.554-.046 5.672.325 7.558.742 3.8 3.676 4.177 3.676 4.177s.19 4.664.272 6.505l8.017-.186-.136-20.205c-.013-.695-.553-1.264-1.243-1.309z" transform="translate(194 22)"/>
            <path fill="#263238" d="M62.522 16.818c.063.064.425-.227.95-.24.524-.014.904.227.972.163.068-.064-.04-.146-.213-.26-.231-.152-.505-.226-.782-.213-.273.01-.536.107-.75.277-.154.119-.204.237-.177.273zM67.826 16.732c.063.063.42-.227.945-.246.525-.018.904.232.972.169.068-.064-.036-.146-.208-.26-.232-.15-.505-.226-.782-.213-.273.009-.536.106-.75.277-.177.127-.222.246-.177.273zM65.95 19.918c-.281-.074-.57-.115-.86-.123-.13 0-.262-.031-.284-.122-.018-.138.007-.278.072-.4.113-.332.235-.678.362-1.041.336-.886.599-1.798.786-2.727-.404.864-.74 1.76-1.003 2.677-.118.363-.236.709-.344 1.045-.079.164-.096.351-.05.528.044.095.129.165.23.19.076.01.152.01.227 0 .288.03.578.02.864-.027z" transform="translate(194 22)"/>
            <path fill="#EB996E" d="M65.913 25.805c1.735.198 3.484-.222 4.943-1.187-.041 0-1.226 2.664-4.884 2.405l-.059-1.218z" transform="translate(194 22)"/>
            <path fill="#FFF" d="M66.216 21.182c.194-.265.51-.411.837-.387.234.013.453.121.606.3.15.175.177.425.068.628-.166.2-.436.279-.683.2-.252-.078-.486-.206-.687-.378-.061-.039-.113-.09-.154-.15-.04-.058-.04-.136 0-.195" transform="translate(194 22)"/>
            <path fill="#263238" d="M67.505 20.227c-.081 0-.063.568-.538.996-.475.427-1.08.382-1.08.454 0 .073.14.105.397.105.334-.008.654-.134.905-.355.239-.215.386-.514.411-.836.014-.227-.054-.368-.095-.364zM67.695 14.41c.059.14.579.054 1.198.108.62.055 1.122.2 1.198.068.077-.131-.058-.195-.262-.327-.275-.163-.585-.258-.904-.277-.318-.027-.637.023-.932.145-.212.1-.32.218-.298.282zM62.64 14.132c.095.113.452-.023.904-.046.452-.022.805.05.904-.077.1-.127-.027-.182-.194-.286-.219-.133-.474-.192-.728-.168-.255.012-.5.104-.701.263-.18.132-.23.273-.185.314z" transform="translate(194 22)"/>
            <path fill="#263238" d="M74.835 23.682c-1.04.254-1.153-.277-1.963-.977-.818-.717-1.25-1.781-1.162-2.869.082-.94.547-1.918.19-2.79-.452-1.16-2.125-1.455-2.604-2.61-.28-.672-.086-1.477-.398-2.131-.358-.593-.941-1.011-1.615-1.16-.664-.146-1.302-.396-1.89-.74-.556-.4-.904-1.178-.596-1.778 2.851.228 5.666.8 8.383 1.7.65.151 1.239.502 1.682 1.005.346.617.491 1.327.416 2.032-.027 3.436-.053 6.872-.077 10.309M76.92 15.795c.07-1.31.996-2.415 2.27-2.705 1.273-.29 2.584.303 3.21 1.455.57 1.06.452 2.378 0 3.496-.534 1.323-1.687 2.559-3.111 2.55-1.357 0-2.46-1.146-2.894-2.418-.434-1.273-.335-2.66-.226-4" transform="translate(194 22)"/>
            <path fill="#455A64" d="M77.869 21c.08-.061.145-.14.19-.232.14-.236.226-.5.253-.773.04-.404.012-.813-.081-1.209-.095-.454-.263-.909-.394-1.404-.14-.456-.186-.935-.135-1.41.086-.385.193-.766.32-1.14.077-.267.077-.551 0-.818-.027-.099-.082-.187-.158-.255 0 0 .05.096.095.277.053.256.037.52-.045.769-.141.372-.26.753-.357 1.14-.06.496-.016 1 .126 1.478.136.504.308.968.407 1.4.098.378.136.769.113 1.159-.037.36-.15.707-.334 1.018z" transform="translate(194 22)"/>
            <path fill="#455A64" d="M77.747 16.41c.157.225.363.413.601.55 1.152.75 2.644.718 3.762-.083.234-.145.432-.343.579-.577 0 0-.23.214-.647.455-.54.347-1.166.538-1.808.554-.633.012-1.257-.144-1.809-.454-.443-.241-.651-.469-.678-.446zM77.955 17c.079.215.197.414.348.586.693.878 1.708 1.44 2.817 1.56.225.035.456.027.678-.023 0-.028-.257-.028-.664-.096-1.058-.178-2.024-.712-2.74-1.513-.137-.18-.283-.351-.44-.514zM77.204 22.305l.04-.046c.037-.05.07-.104.1-.159.114-.21.189-.44.222-.677.058-.379.022-.766-.104-1.128-.163-.485-.493-.897-.932-1.159-.452-.304-1.058-.5-1.451-.995-.205-.255-.292-.586-.24-.91.062-.343.159-.68.29-1.004.272-.743.223-1.567-.136-2.272-.19-.367-.468-.68-.81-.91-.357-.235-.761-.39-1.184-.454-.416-.077-.828-.118-1.212-.218-.38-.083-.735-.26-1.03-.514-.265-.266-.432-.613-.476-.986-.05-.371-.124-.739-.221-1.1-.197-.68-.578-1.292-1.099-1.768-.46-.413-1.034-.672-1.646-.741-.504-.066-1.016.033-1.46.281-.333.186-.614.451-.819.773-.13.201-.222.425-.271.66-.021.08-.03.162-.027.245.125-.682.553-1.27 1.162-1.596.429-.231.92-.317 1.402-.245.585.074 1.132.328 1.569.727.495.462.855 1.051 1.04 1.705.093.358.164.723.212 1.09.048.407.232.785.52 1.073.315.277.695.47 1.103.56.403.104.814.14 1.221.218.4.059.783.2 1.126.413.32.224.58.524.755.873.338.669.388 1.448.136 2.154-.134.334-.231.682-.29 1.037-.047.354.052.713.276.99.453.533 1.05.723 1.497 1.01.421.244.742.63.904 1.09.128.348.172.72.127 1.087-.043.314-.142.618-.294.896z" transform="translate(194 22)"/>
            <path fill="#455A64" d="M76.535 11.65c.025-.056.04-.116.04-.177.008-.18-.043-.357-.144-.505-.159-.234-.389-.41-.656-.5-.357-.102-.736-.102-1.094 0-.398.091-.805.268-1.252.373-.464.149-.968.09-1.384-.164-.403-.36-.7-.824-.864-1.34-.23-.56-.548-1.081-.94-1.542-.762-.897-1.8-1.514-2.948-1.754-.507-.099-1.03-.065-1.52.1-.427.145-.804.41-1.085.764-.411.525-.497 1.237-.222 1.845.071.16.175.304.303.423.041.045.09.082.145.109-.163-.16-.295-.35-.389-.56-.099-.247-.14-.515-.122-.781.022-.352.155-.688.38-.96.272-.329.63-.575 1.035-.708.468-.15.966-.178 1.447-.082 1.112.241 2.114.845 2.85 1.718.378.447.683.952.903 1.496.179.543.5 1.027.932 1.4.224.155.487.243.76.254.25.008.5-.02.741-.082.452-.118.868-.3 1.248-.395.336-.105.694-.116 1.036-.032.252.082.474.24.633.455.098.131.154.29.162.454.014.127-.004.191.005.191z" transform="translate(194 22)"/>
            <path fill="#FFF" d="M85.384 76.14c.452-11.363-3.753-19.18-4.495-22.576-.741-3.396.068-9.76-.086-13.228-.104-2.272-.302-5.909-1.722-8.359s-4.576-4.704-4.576-4.704l-8.035 3.563s-3.075 7.7-4.558 11.364c-1.447 3.586 3.197 9.968 3.197 9.968s-5.345 15.105-5.345 23.973h25.62z" transform="translate(194 22)"/>
            <path fill="#455A64" d="M97.765 59.477l-9.496-16.04s-5.29.936-7.687 2.727c-2.397 1.79-7.149 5.94-7.149 5.94l6.425 17.955c.538 1.47 2.059 2.327 3.586 2.023h.073c1.709-.355 9.26-5.455 13.257-8.241 1.425-.964 1.858-2.875.99-4.364z" transform="translate(194 22)"/>
            <path fill="#FFF" d="M74.505 27.273L74.138 25s-8.935 3.46-8.745 3.94c.19.483.77 2.86.77 2.86l8.342-4.527z" transform="translate(194 22)"/>
            <path fill="#263238" d="M85.384 44.227c-1.326-3.47-3.037-6.779-5.1-9.863-2.261-3.219-5.187-5.691-7.09-5.055 0 0 1.686.314 3.535 2.827 2.356 3.205 5.58 13.21 5.58 13.21l3.075-1.119z" transform="translate(194 22)"/>
            <path fill="#263238" d="M69.183 34.74c-.017-.104-.017-.212 0-.317.027-.205.072-.496.144-.855.16-.95.51-1.857 1.027-2.668.546-.815 1.395-1.375 2.356-1.555.29-.048.585-.04.872.023.106.017.207.054.299.11-.38-.063-.768-.063-1.149 0-.909.208-1.705.756-2.229 1.531-.5.796-.856 1.675-1.05 2.596-.067.383-.158.763-.27 1.136z" transform="translate(194 22)"/>
            <path fill="#263238" d="M70.57 30.655c-.596.504-1.925 3.059-2.26 5.759-.253 2.086.452 4.895.787 6.972l.248-4.581s-.095-1.405-.054-2.728c.028-.854.166-1.7.412-2.518l.868-2.904zM77.774 39.9c.085-.277.207-.542.362-.786.221-.423.393-.764.452-.746-.02.297-.116.584-.28.832-.218.427-.475.732-.534.7zM66.099 30.94c.434.046.872-.006 1.284-.15.773-.25 1.623-1.026 2.686-1.7.899-.584 1.835-1.108 2.803-1.567.376-.173.683-.305.905-.387.107-.052.221-.09.339-.113 0 .027-.452.24-1.176.618-.723.377-1.718.909-2.763 1.604-.524.337-1.003.682-1.456.996-.394.287-.828.514-1.288.673-.315.105-.647.144-.977.113-.124 0-.247-.029-.357-.086zM66.162 31.818c-.017.085-.042.167-.077.246l-.248.681c-.24.619-.57 1.46-.968 2.487l-1.46 3.682-.873 2.172c-.145.378-.308.76-.453 1.15-.142.39-.236.796-.28 1.21-.172 1.695.366 3.295.95 4.64.583 1.346 1.275 2.523 1.736 3.555.396.806.7 1.656.904 2.532.054.236.091.476.113.718.012.084.012.17 0 .254-.022 0-.058-.345-.217-.95-.23-.857-.547-1.688-.945-2.481-.479-1.019-1.157-2.173-1.786-3.537-.628-1.363-1.162-2.99-.985-4.759.046-.433.145-.859.293-1.268.15-.395.312-.773.453-1.15l.881-2.164 1.51-3.663c.426-1.018.778-1.85 1.036-2.464l.294-.664c.028-.081.07-.158.122-.227z" transform="translate(194 22)"/>
            <path fill="#000" d="M64.864 56.51s2.596 6.072 9.903 4.4c0 0 1.483 13.426 8.438 11.226-1.393.173-2.447-.454-3.206-1.79L74.767 55.75l-9.903.76z" opacity=".3" transform="translate(194 22)"/>
            <path fill="#FFF" d="M70.168 33.877L68.73 48.991l-10.354-3.277-3.111 4.245s16.893 14.26 19.972 5.877c3.215-8.75 2.492-18.709 2.492-18.709s-.507-3.254-2.334-5.118c-1.826-1.864-4.901-.677-5.227 1.868z" transform="translate(194 22)"/>
            <path fill="#263238" d="M69.599 35.455v.245c0 .16 0 .41-.028.71-.036.635-.085 1.554-.149 2.726-.135 2.364-.334 5.75-.579 9.878v.118l-.113-.041-10.363-3.26.126-.04-3.002 4.286-.023-.159c1.357 1.1 2.912 2.123 4.477 3.182 1.013.673 2.012 1.332 2.98 2.014.94.675 1.92 1.295 2.934 1.854.972.542 2.002.97 3.07 1.277 1.018.308 2.092.372 3.138.187.984-.214 1.87-.744 2.528-1.51.281-.388.5-.82.647-1.277.167-.454.312-.909.452-1.363.547-1.647.98-3.33 1.293-5.037.381-2.484.608-4.99.678-7.504l.118-2.05c0-.223.027-.4.04-.532-.004-.06-.004-.121 0-.182.006.06.006.122 0 .182v.536c0 .482-.045 1.169-.072 2.05-.037 2.522-.241 5.038-.61 7.532-.304 1.716-.728 3.408-1.27 5.064-.136.454-.281.909-.453 1.364-.154.479-.382.93-.678 1.336-.685.807-1.614 1.366-2.645 1.59-1.077.194-2.185.132-3.233-.181-1.09-.309-2.139-.742-3.13-1.29-1.021-.564-2.009-1.188-2.957-1.87-.963-.676-1.962-1.335-2.97-2.004-1.57-1.04-3.111-2.068-4.495-3.181l-.086-.069.063-.09 3.012-4.282.045-.069.077.028 10.35 3.295-.122.082.66-9.868c.086-1.168.15-2.082.195-2.727.027-.305.045-.541.058-.71.014-.168.037-.24.037-.24z" transform="translate(194 22)"/>
            <path fill="#263238" d="M63.874 55.968c.005.033.005.067 0 .1l-.09.287-.376 1.104c-.294.973-.723 2.382-1.14 4.177-1.09 4.785-1.882 9.634-2.369 14.519l-.113-.128h4.974l20.656.05-.068.068c.045-1.54.068-2.763.068-3.595v-.95-.327c.03.105.047.213.054.322 0 .219.036.537.045.955v3.668h-.068l-20.655.05h-5.155v-.127c.492-4.899 1.312-9.758 2.456-14.546.452-1.818.904-3.204 1.207-4.168l.411-1.09.113-.282c.014-.031.03-.06.05-.087z" transform="translate(194 22)"/>
            <path fill="#000" d="M77.774 39.864s.732 7.981.407 8.254l-1.099.91s.656-8.246.692-9.164z" opacity=".3" transform="translate(194 22)"/>
            <path fill="#AA6550" d="M49.034 34.618l3.59 1.991c-.114.26-.334.46-.604.546-.27.087-.563.054-.807-.091-1.04-.455-2.89-1.61-2.89-1.61l-1.428.578-1.09-1.327 3.229-.087z" transform="translate(194 22)"/>
            <path fill="#B78876" d="M41.668 41.74c1.102.457 2.357.338 3.355-.317 1.632-1.123 1.75-1.491 2.428-1.7.488-.15 2.767-.455 3.667-.678.191-.046.34-.196.385-.388.045-.193-.022-.394-.172-.52-.497-.184-1.018-.291-1.547-.319-.476-.004-.95.046-1.415.15-.704.044-1.407-.113-2.026-.454l.027-.573 2.261-.405c.754.6 1.598 1.076 2.5 1.41.507.063 1.02-.006 1.493-.2v-.128l-3.21-2.313-3.003-.51-.904-.159-7.737 4.65 2.012 3.582 1.886-1.127z" transform="translate(194 22)"/>
            <path fill="#455A64" d="M50.674 39.592c.733-.165 1.461.295 1.627 1.028v.003l.279 1.245c.164.736-.298 1.465-1.033 1.631-.733.166-1.462-.294-1.627-1.027v-.003l-.28-1.246c-.163-.735.299-1.465 1.034-1.63z" transform="translate(194 22)"/>
            <path fill="#263238" d="M50.354 37.882c0-.027.136-.06.357 0 .294.042.557.207.724.454.154.258.202.566.135.86-.054.218-.14.331-.167.318-.027-.014 0-.141 0-.337.014-.25-.044-.5-.167-.718-.137-.21-.339-.37-.574-.454-.181-.055-.312-.087-.308-.123zM50.666 39.927c.023.05-.298.237-.719.055-.175-.088-.294-.26-.316-.455 0-.136 0-.218.045-.218s.104.323.38.455c.275.131.587.095.61.163zM52.036 43.414s.054-.032.104-.123c.071-.141.081-.306.027-.455-.13-.495-.253-.963-.384-1.472-.131-.51-.244-.982-.362-1.482-.017-.148-.11-.275-.244-.337-.052-.015-.107-.015-.158 0 0 0 .05-.059.167-.031.157.054.271.19.299.354.104.377.24.91.388 1.477.15.569.272 1.096.358 1.482.044.153.023.318-.06.455-.067.123-.135.136-.135.132z" transform="translate(194 22)"/>
            <path fill="#263238" d="M51.652 40.755c-.313.136-.637.245-.968.327-.323.11-.656.187-.995.232.313-.136.637-.244.968-.323.323-.112.656-.191.995-.236zM51.932 41.964c-.298.135-.609.241-.927.318-.308.107-.626.183-.95.227.292-.133.595-.24.905-.318.315-.109.641-.185.972-.227z" transform="translate(194 22)"/>
            <path fill="#E0E0E0" d="M52.28 43.345c.158-.144.223-.365.168-.572-.082-.387-.665-2.764-.665-2.764l.344-.104.596 2.645s.1.668-.443.795z" transform="translate(194 22)"/>
            <path fill="#FFF" d="M27.831 131.3l-1.288 7.986s7.687 3.328 7.596 4.828l-15.55-1.287 1.51-12.532 7.732 1.005z" transform="translate(194 22)"/>
            <path fill="#EBEBEB" d="M21.835 138.005c-.32.053-.55.341-.529.668.043.325.33.56.656.536.34-.06.58-.368.556-.714-.08-.334-.41-.545-.746-.477M18.589 142.827l.154-1.25 14.695 1.505s.796.582.728 1.068l-15.577-1.323z" transform="translate(194 22)"/>
            <path fill="#263238" d="M26.8 139.24c0 .074-.393.06-.795.26-.403.2-.643.49-.71.455-.068-.037.104-.455.596-.691.493-.237.936-.091.91-.023zM28.342 140.118c0 .077-.334.168-.633.455-.298.286-.416.622-.488.609-.072-.014-.072-.455.307-.805.38-.35.823-.332.814-.259zM29.02 142.19c-.072 0-.13-.38.118-.776.249-.396.62-.514.647-.455.027.06-.226.264-.42.591-.195.327-.268.645-.344.64zM26.895 137.386c-.04.064-.375-.086-.805-.109-.43-.022-.782.068-.813 0-.032-.068.325-.304.832-.268.506.036.832.323.786.377zM27.13 135.768c-.262.038-.529.003-.773-.1-.437-.137-.844-.358-1.198-.65-.082-.06-.154-.131-.213-.213-.092-.121-.092-.289 0-.41.091-.096.222-.145.353-.131.098.013.194.039.285.077.157.063.308.14.452.227.248.152.47.343.66.564.317.382.403.682.376.69-.027.01-.181-.236-.516-.558-.192-.189-.408-.35-.642-.482-.138-.077-.281-.142-.43-.196-.158-.063-.298-.081-.348 0-.05.082-.022.037 0 .091.046.058.1.11.159.155.12.104.246.2.38.286.226.15.465.28.714.387.253.07.5.158.741.263z" transform="translate(194 22)"/>
            <path fill="#263238" d="M27.013 135.868c-.118-.242-.156-.516-.109-.782.024-.29.096-.574.213-.84.072-.16.158-.312.258-.455.11-.197.317-.322.542-.327.14.02.255.12.299.254.027.098.042.199.045.3.009.478-.17.94-.498 1.287-.357.368-.682.418-.687.39-.004-.027.262-.154.543-.513.162-.206.277-.445.339-.7.034-.15.048-.302.04-.455 0-.168-.05-.309-.112-.3-.064.01-.222.096-.303.223-.092.125-.174.257-.245.395-.116.241-.2.496-.248.76-.077.459-.032.754-.077.763z" transform="translate(194 22)"/>
            <path fill="#FFF" d="M18.847 131.868l-.66 8.068s7.93 2.705 7.953 4.205l-15.6-.046.516-12.609 7.79.382z" transform="translate(194 22)"/>
            <path fill="#EBEBEB" d="M13.393 139.032c-.314.08-.519.385-.474.709.07.319.375.528.696.477.334-.085.55-.412.497-.754-.106-.326-.45-.51-.777-.414M10.54 144.09l.05-1.258 14.772.332s.837.518.81 1.009l-15.632-.082z" transform="translate(194 22)"/>
            <path fill="#263238" d="M18.444 139.868c0 .073-.389.091-.778.323-.388.232-.596.54-.669.504-.072-.036.068-.454.538-.736.47-.282.927-.164.91-.09zM20.05 140.623c0 .077-.322.19-.597.5-.276.309-.362.654-.453.645-.09-.009-.104-.454.245-.823.348-.368.804-.395.804-.322zM20.886 142.636c-.068 0-.158-.377.059-.786.217-.41.578-.56.606-.495.027.063-.2.277-.371.618-.172.34-.217.659-.294.663zM18.39 138.014c-.036.068-.38-.055-.81-.046-.429.01-.773.132-.813.064-.041-.068.298-.327.809-.332.511-.005.855.255.814.314zM18.494 136.364c-.26.057-.53.043-.782-.041-.28-.063-.55-.16-.805-.291-.157-.076-.308-.162-.452-.26-.086-.052-.162-.118-.226-.195-.09-.12-.09-.288 0-.409.082-.106.21-.165.343-.159.099.002.197.02.29.055.165.047.326.11.479.19.259.132.495.304.7.51.344.354.453.645.43.659-.022.013-.203-.228-.556-.523-.208-.169-.436-.312-.678-.427-.147-.063-.298-.116-.452-.16-.163-.05-.303-.058-.353 0-.05.06 0 .042 0 .092.05.053.106.1.167.14.13.092.264.177.403.255.236.132.484.242.741.327.256.06.507.139.75.237z" transform="translate(194 22)"/>
            <path fill="#263238" d="M18.39 136.486c-.14-.23-.2-.5-.172-.768 0-.29.05-.58.145-.854.061-.158.135-.31.221-.455.098-.206.294-.347.52-.373.142.009.265.102.312.237.039.092.062.19.068.29.028.175.028.353 0 .528-.055.292-.183.566-.37.795-.326.396-.647.455-.652.455-.004 0 .249-.177.502-.555.143-.22.238-.467.28-.727.023-.15.023-.304 0-.454 0-.169-.072-.305-.135-.291-.063.013-.213.113-.285.245-.083.131-.154.27-.213.414-.1.248-.162.51-.185.777-.063.436.005.727-.036.736z" transform="translate(194 22)"/>
            <path fill="#B78876" d="M11.684 26.7l8.813 1.818c.068-1-.208-7.273-.208-7.273s3.563-.5 3.663-4.09c.1-3.591-.403-11.787-.403-11.787-4.087-1.836-8.843-1.306-12.43 1.387l-.534.4 1.1 19.545z" transform="translate(194 22)"/>
            <path fill="#AA6550" d="M20.289 21.26c-1.64-.03-3.237-.53-4.603-1.442 0 0 1.09 2.582 4.644 2.314l-.041-.873z" transform="translate(194 22)"/>
            <path fill="#B78876" d="M10.97 10.91c-.064-.028-2.433-.76-2.392 1.68.04 2.442 2.473 1.9 2.478 1.82.004-.083-.086-3.5-.086-3.5z" transform="translate(194 22)"/>
            <path fill="#AA6550" d="M10.296 13.486s-.04.032-.113.069c-.102.038-.215.038-.317 0-.321-.2-.513-.557-.501-.937-.008-.208.029-.416.108-.609.043-.157.162-.282.317-.332.098-.028.202.018.248.11.036.068 0 .118.032.122.032.005.054-.04.032-.14-.014-.063-.05-.118-.1-.155-.068-.049-.152-.07-.235-.06-.208.04-.38.187-.452.387-.1.214-.147.45-.136.686-.016.446.235.858.638 1.046.132.035.274.009.384-.073.09-.055.104-.11.095-.114z" transform="translate(194 22)"/>
            <path fill="#263238" d="M22.749 11.24c-.003.277-.223.5-.498.505-.128.01-.255-.032-.352-.118-.097-.085-.156-.207-.163-.336.002-.276.223-.5.497-.505.13-.01.256.033.353.119.097.085.156.206.163.336zM22.803 10.418c-.063.064-.452-.227-.99-.232-.538-.004-.95.26-1.008.191-.06-.068.036-.15.212-.272.238-.164.522-.246.81-.237.284.002.56.096.786.268.168.132.222.25.19.282zM17.436 11.16c0 .277-.221.503-.498.508-.265.013-.493-.188-.515-.454.002-.277.222-.502.497-.51.129-.008.255.035.352.12.097.085.156.206.164.335zM17.436 10.455c-.063.063-.452-.228-.99-.232-.539-.005-.955.259-1.009.19-.054-.068.036-.15.213-.272.238-.163.521-.246.81-.236.283.002.56.096.786.268.163.118.221.236.19.282zM19.358 14.545c.293-.089.597-.14.904-.15.14 0 .276-.036.298-.131.015-.145-.015-.291-.086-.419l-.397-1.072c-.375-.91-.678-1.847-.905-2.805.444.877.815 1.789 1.108 2.727.136.378.262.737.38 1.082.086.17.108.365.063.55-.04.1-.126.175-.23.2-.077.02-.156.031-.236.032-.299.033-.601.028-.9-.014zM17.743 14.895c.09 0 .082.596.584 1.023.502.427 1.135.377 1.135.455 0 .077-.14.113-.407.118-.348-.001-.684-.125-.95-.35-.255-.216-.417-.522-.452-.855-.018-.245.05-.395.09-.39zM17.608 8.29c-.06.15-.602.07-1.244.137-.642.068-1.162.237-1.243.1-.041-.063.054-.2.266-.34.272-.177.583-.285.905-.314.33-.035.663.01.972.132.249.095.37.213.344.286zM22.609 8.827c-.1.123-.452 0-.927-.027-.475-.027-.837.073-.905-.06-.036-.063.028-.185.195-.304.226-.14.49-.206.755-.19.265.007.52.098.732.259.15.131.213.259.15.322z" transform="translate(194 22)"/>
            <path fill="#263238" d="M25.322 3.182c.063-.448-.108-.896-.452-1.187-.366-.277-.878-.246-1.208.073.074-.3.017-.616-.156-.87-.172-.256-.444-.425-.748-.466-.579-.046-1.08.386-1.641.532-.561.112-1.143.035-1.655-.219-.525-.218-1.013-.518-1.542-.722-1.119-.436-2.363-.408-3.46.08-1.098.486-1.958 1.39-2.391 2.515-.81-.212-1.665.099-2.153.782-.462.684-.656 1.517-.542 2.336.069.55.198 1.089.384 1.61v.136c0 1.968.194 4.277 1.026 4.3 1.456.045 1.149-2.727 1.149-2.727 1.809-.664 1.166-3.36 1.619-3.76.452-.4 1.401-1.336 5.105.637 1.38.646 2.927.839 4.422.55h.145c.339-.08.664-.211.963-.391.353-.198.635-.504.805-.873.163-.377.088-.816-.19-1.118.291-.344.472-.769.52-1.218z" transform="translate(194 22)"/>
            <path fill="#B78876" d="M33.271 47.918l5.878 2.51 1.809.022c.533.008 1.04.233 1.406.623l2.455 2.454.218 2.823-1.863 1.418s-.683.064-.453-.723l-1.112.705h-1.194l-1.157-.164-1.04-1.395s-.208-.518.787-.227l.931.745.94-.954-1.844-1.428-2.858-.19c-.28-.014-.54-.142-.724-.355l-.872-1.005-1.696-.272.389-4.587z" transform="translate(194 22)"/>
            <path fill="#AA6550" d="M43.34 53.636c.186.63.297 1.28.331 1.937.06.27.043.552-.05.813-.121.188-.285.344-.48.455-.298.195-.42.354-.451.345-.032-.009.068-.245.343-.454.153-.114.284-.256.385-.418.058-.229.058-.468 0-.696-.105-.655-.13-1.32-.077-1.982zM40.28 57.686c.348-.427.75-.806 1.198-1.127.127-.14.196-.324.19-.514.022-.195.036-.372.045-.518 0-.3.027-.486.063-.486.037 0 .082.177.104.486.01.179.01.358 0 .537-.003.11-.017.22-.04.327-.036.128-.105.244-.2.336-.401.388-.86.712-1.36.96zM41.623 57.75c.242-.256.521-.475.827-.65-.05.06 0 0-.023 0v-.332c0-.136 0-.277.037-.423-.006-.62.057-1.239.19-1.845.098.618.113 1.246.045 1.868 0 .146-.014.287-.04.423l-.028.2V57.14c0 .027 0 0-.054.104-.288.22-.61.391-.954.505z" transform="translate(194 22)"/>
            <path fill="#FFBE9D" d="M36.02 53.955s-.126.659.262.863c.272.113.58.102.841-.032 0 0-.185 1.019 1.167.719 0 0-.09.645.819.454 0 0 0 .973.84.736.472-.107.839-.48.941-.954 0 0 0-1.168-.755-1.1 0 0 .452-.764-.393-.91-.427-.116-.868.133-.99.56.044-.136.021-.285-.06-.402-.082-.118-.214-.19-.357-.194-.333-.066-.672.08-.854.369 0 0-.832-1.014-1.46-.11z" transform="translate(194 22)"/>
            <path fill="#EB996E" d="M37.53 54.036c.055.032 0 .223-.099.455-.1.232-.249.345-.303.314-.054-.032 0-.223.095-.428.095-.204.249-.372.307-.34zM38.828 54.16c.063 0 .127.354-.04.754-.168.4-.453.609-.507.559-.054-.05.15-.3.29-.65.14-.35.19-.664.257-.664zM40.126 54.627c.059 0 0 .423-.308.81-.307.386-.678.558-.705.5-.027-.06.249-.292.52-.646.271-.355.43-.686.493-.664z" transform="translate(194 22)"/>
            <path fill="#263238" d="M32.679 97.932c-.448-5.205-6.277-34.296-6.277-34.296l-6.855 1.819-13.307-2.55-1.117 8.581c-.348 2.679.135 5.4 1.384 7.791l2.238 23.782 1.063 35.764 10.983-.314.036-1.864 7.077.7s5.218-34.204 4.775-39.413zm-11.205 5.045l-.095-1.909.122.582-.027 1.327z" transform="translate(194 22)"/>
            <path fill="#455A64" d="M6.538 79.618s0 .1.041.296l.095.872c.077.778.19 1.914.34 3.378.284 2.94.696 7.204 1.211 12.5.678 5.29.7 11.668.963 18.79.262 7.123.475 15 .737 23.346l-.122-.114 7.271-.204 3.712-.11-.113.119c.172-8.773.34-17.091.489-24.632l.217-10.686c.059-1.668 0-3.282 0-4.832 0-1.55-.036-3.032-.054-4.45-.068-5.664-.118-10.227-.154-13.391 0-1.568-.027-2.79-.032-3.636v-.941-.323.323c0 .213 0 .532.023.94 0 .837.04 2.055.072 3.637.054 3.16.131 7.727.23 13.39.025 1.42.047 2.902.069 4.45 0 1.55.08 3.183.027 4.833-.064 3.345-.127 6.918-.195 10.69-.144 7.542-.303 15.86-.452 24.632v.114H20.8l-3.708.11-7.27.204h-.118v-.114l-.71-23.345c-.217-7.123-.258-13.5-.905-18.791-.483-5.296-.872-9.546-1.14-12.505l-.298-3.377c-.031-.377-.054-.673-.072-.877-.018-.205-.04-.296-.04-.296zM21.112 25.455s4.151 1.727 4.608 4.395c.149.868 2.595 12.695 2.595 12.695l9.356-4.145 3.563 5.045-15.116 9.946-5.363-3.56.357-24.376z" transform="translate(194 22)"/>
            <path fill="#263238" d="M24.521 31.65c.026.078.04.159.046.24l.067.687c.046.628.104 1.482.181 2.523.131 2.164.312 5.095.511 8.336.2 3.241.403 6.169.543 8.332.072 1.041.136 1.896.18 2.523 0 .277.032.504.041.69.012.08.012.162 0 .242-.025-.077-.04-.156-.045-.237-.022-.186-.054-.409-.086-.686-.072-.59-.158-1.455-.257-2.518-.19-2.127-.412-5.073-.61-8.332-.2-3.26-.349-6.205-.453-8.34-.045-1.042-.081-1.896-.104-2.528v-.691c-.016-.08-.02-.16-.014-.241z" transform="translate(194 22)"/>
            <path fill="#455A64" d="M21.112 25.455l-.904-2.787-1.171 3.991-8.013-4.823-1.433 2.473-6.295 3.336c-.669 1.187-1.08 11.946-1.08 11.946 0 .577 3.617 15.768 3.617 15.768L3.495 73.436l20.823.31.18-7.573 1.43 7.595 4.191-1.2-3.775-18.7-5.313-28.75" transform="translate(194 22)"/>
            <path fill="#455A64" d="M3.314 27.65c-3.662 3.132-3.667 7-2.672 10.91L3.84 49.09c.973 3.824 4.582 6.355 8.487 5.955l20.755-1.759.23-5.79-20.379-2.091L3.314 27.65z" transform="translate(194 22)"/>
            <path fill="#263238" d="M3.314 27.65l-.081.082-.249.236-.416.377c-.167.15-.316.364-.51.582-.091.114-.195.228-.295.36l-.275.431c-.11.152-.207.312-.294.477l-.267.55c-.395.886-.645 1.83-.742 2.796-.11 1.199-.04 2.408.204 3.586.153.666.342 1.323.565 1.968l.66 2.105c.905 2.905 1.94 6.177 3.057 9.74.608 1.542 1.82 2.765 3.35 3.383 1.65.633 3.437.824 5.182.554l12.471-1.059 7.398-.636-.104.113.23-5.79.105.118-20.38-2.123h-.05v-.05c-1.392-4.118-2.518-7.455-3.3-9.773-.38-1.145-.679-2.04-.882-2.659-.1-.3-.172-.532-.226-.695-.055-.164-.068-.237-.068-.237s.032.073.09.228l.244.686.932 2.65c.796 2.31 1.949 5.636 3.369 9.745l-.073-.054L33.343 47.4h.104v.105c-.072 1.881-.147 3.812-.226 5.79v.105h-.1l-7.388.627-12.47 1.05c-1.79.274-3.62.074-5.31-.582-1.58-.643-2.83-1.91-3.458-3.504-1.108-3.568-2.121-6.841-3.02-9.75l-.657-2.11C.6 38.48.413 37.818.262 37.146c-.24-1.196-.301-2.422-.18-3.636.106-.977.37-1.93.777-2.823l.276-.55c.093-.165.194-.326.303-.481l.285-.432c.1-.128.208-.241.303-.355.166-.2.343-.39.529-.573l.425-.372.262-.223c.023-.018.047-.035.072-.05z" transform="translate(194 22)"/>
            <path fill="#263238" d="M7.65 30.69c-.319-.134-.631-.286-.935-.454-.74-.357-1.545-.56-2.365-.595-.816-.018-1.619.214-2.302.664-.27.208-.53.431-.777.668.147-.327.382-.605.678-.805.695-.516 1.541-.785 2.405-.763.855.03 1.69.264 2.438.681.32.149.61.353.859.605z" transform="translate(194 22)"/>
            <path fill="#FFF" d="M10.106 23.455L21.32 46.214 23.282 46.386 21.112 25.459 20.226 22.673 19.037 26.45 11.001 21.155z" transform="translate(194 22)"/>
            <path fill="#263238" d="M22.609 46.418c-.088-.252-.158-.51-.208-.773-.118-.5-.276-1.227-.452-2.127-.371-1.818-.85-4.29-1.357-7.05-.506-2.759-.904-5.263-1.194-7.082-.14-.909-.244-1.645-.307-2.154-.047-.263-.071-.529-.073-.796.072.257.127.518.163.782.095.546.226 1.268.38 2.141.33 1.846.773 4.323 1.266 7.064.493 2.74.94 5.218 1.275 7.063l.39 2.141c.06.26.1.525.117.791z" transform="translate(194 22)"/>
            <path fill="#263238" d="M19.037 26.45s0 .027-.055.064c-.058.046-.108.1-.149.163-.158.238-.276.5-.348.778-.245.99-.36 2.01-.34 3.031v.237l-.176-.155c-.714-.627-1.546-1.318-2.423-2.045-1.578-1.31-2.994-2.523-3.957-3.468-.484-.455-.859-.864-1.112-1.146-.137-.14-.261-.292-.37-.454.165.11.317.242.451.39.272.26.665.637 1.162 1.087.99.909 2.415 2.095 3.998 3.409.872.727 1.7 1.427 2.41 2.068l-.177.077c-.009-1.038.136-2.072.43-3.068.086-.287.227-.554.416-.786.052-.06.115-.112.185-.15.01-.027.055-.037.055-.032z" transform="translate(194 22)"/>
            <path fill="#263238" d="M21.112 25.455c.037.32.027.645-.032.963-.054.596-.19 1.405-.303 2.3v.073l-.072.568-.158-.545c-.158-.73-.419-1.432-.773-2.087-.106-.182-.297-.297-.507-.304-.145 0-.23.05-.24.027-.009-.023.064-.082.231-.118.252-.031.5.083.642.295.417.647.713 1.365.873 2.118h-.23v-.077c.117-.909.275-1.704.375-2.273.032-.32.097-.634.194-.94zM9.894 60.077c.061-.02.125-.034.19-.04l.578-.092 2.175-.309 7.51-1h.155l-.028.155-.628 3.232v.086h-.118c-4.408.386-8.333.718-10.82.91h-.113l.036-.105c.326-.882.583-1.591.773-2.11l.208-.55c.021-.061.048-.12.082-.177-.01.072-.029.142-.055.21l-.176.572c-.172.514-.402 1.223-.692 2.1l-.077-.095c2.483-.246 6.403-.614 10.812-1h.031l-.108.095c.221-1.118.452-2.204.633-3.227l.127.132-7.475.909-2.207.245-.596.06c-.072.01-.145.01-.217 0zM21.401 46.29c-.053-.028-.102-.065-.144-.108l-.385-.341-1.429-1.296L14.605 40v-.027c-.339-1-.7-2.078-1.071-3.182l-2.804-8.496-.823-2.581c-.086-.287-.158-.519-.212-.705-.03-.082-.05-.167-.06-.254.043.075.078.154.105.236l.253.695.904 2.56c.742 2.195 1.755 5.177 2.867 8.472l1.063 3.182-.027-.045 4.78 4.604 1.356 1.364.361.368c.038.03.073.063.104.1zM12.86 45.318c.05.055-.67.687-1.257 1.682-.334.619-.636 1.255-.905 1.905.172-1.451.956-2.758 2.153-3.587h.009zM23.78 54.132c.063 0 .307 2.927.547 6.554.24 3.628.375 6.564.312 6.569-.063.004-.312-2.932-.547-6.555-.235-3.623-.38-6.564-.312-6.568z" transform="translate(194 22)"/>
            <path fill="#000" d="M5.037 51.918s1.013 5.746 4.576 5.314c3.563-.432 13.565-3.11 13.565-3.11l-10.852.942s-4.996.636-7.289-3.146z" opacity=".3" transform="translate(194 22)"/>
            <path fill="#000" d="M0.032 0.45L0.095 0.727 2.021 9.127 0.547 8.977" opacity=".3" transform="translate(194 22) translate(24.87 37.727)"/>
        </g>
    </g>
</svg>
